<svg width="410" height="411" viewBox="0 0 410 411" fill="none" xmlns="http://www.w3.org/2000/svg">
<path d="M205 410.155C318.218 410.155 410 357.166 410 291.801C410 226.435 318.218 173.446 205 173.446C91.7816 173.446 0 226.435 0 291.801C0 357.166 91.7816 410.155 205 410.155Z" fill="#EBF7FF"/>
<path d="M240.088 356.876C260.905 356.876 277.781 347.133 277.781 335.114C277.781 323.096 260.905 313.353 240.088 313.353C219.27 313.353 202.395 323.096 202.395 335.114C202.395 347.133 219.27 356.876 240.088 356.876Z" fill="white"/>
<path d="M338.147 343.986C358.965 343.986 375.841 334.243 375.841 322.225C375.841 310.206 358.965 300.463 338.147 300.463C317.33 300.463 300.454 310.206 300.454 322.225C300.454 334.243 317.33 343.986 338.147 343.986Z" fill="white"/>
<path d="M131.972 389.505C152.79 389.505 169.666 379.762 169.666 367.743C169.666 355.724 152.79 345.981 131.972 345.981C111.155 345.981 94.2791 355.724 94.2791 367.743C94.2791 379.762 111.155 389.505 131.972 389.505Z" fill="white"/>
<path d="M70.1944 296.182C70.1944 296.182 69.2106 273.172 59.5641 260.365C49.9176 247.558 38.094 245.718 32.2368 249.325C27.9556 251.948 28.5294 259.746 35.9351 264.81C43.3408 269.875 57.6148 282.855 59.8465 291.318L70.1944 296.182Z" fill="#37474F"/>
<path d="M63.818 292.83C63.6618 292.818 63.5162 292.746 63.4125 292.628C63.3087 292.511 63.2548 292.358 63.2624 292.201C64.2553 271.323 45.9551 258.306 40.9724 255.965C40.8295 255.898 40.7187 255.777 40.6642 255.629C40.6096 255.481 40.6156 255.317 40.681 255.173C40.75 255.029 40.8726 254.918 41.0224 254.864C41.1722 254.809 41.3373 254.816 41.4826 254.881C46.5928 257.304 65.4759 270.722 64.4557 292.229C64.4463 292.387 64.375 292.534 64.2574 292.64C64.1397 292.746 63.9851 292.801 63.8271 292.793L63.818 292.83Z" fill="white"/>
<path d="M65.6398 288.913C64.3247 288.895 63.0601 288.403 62.0782 287.528C60.9577 286.298 61.0488 284.413 60.5296 282.828C59.6825 280.223 57.1137 278.456 54.4356 277.9C51.7202 277.476 48.9446 277.663 46.3103 278.446C40.936 279.767 35.7711 276.461 30.3877 276.852C28.4452 276.915 26.5561 277.503 24.9222 278.556C24.1163 279.089 23.456 279.814 23.0011 280.667C22.5463 281.519 22.3111 282.472 22.317 283.438C22.5017 285.038 23.2982 286.503 24.5396 287.528C25.7844 288.551 27.1561 289.408 28.6205 290.079L33.3481 292.493C34.1654 292.856 34.9189 293.348 35.5798 293.95C36.2044 294.619 36.6755 295.417 36.9603 296.287C37.245 297.157 37.3366 298.078 37.2286 298.987C36.8642 300.809 35.4068 302.194 34.9422 303.979C34.3683 306.32 35.7985 308.825 37.8571 310.091C39.9954 311.249 42.4362 311.726 44.8529 311.458C47.2668 311.321 49.6534 310.838 52.0673 310.793C53.7005 310.676 55.3327 311.033 56.7676 311.822C58.388 312.995 59.5555 314.69 60.0742 316.623C60.3871 317.862 60.8845 319.047 61.5498 320.139C62.3702 321.176 63.4749 321.951 64.7289 322.37C67.1543 323.263 69.8185 323.263 72.2439 322.37C74.2388 321.605 75.2135 319.355 75.9604 317.406C76.7068 315.365 77.0622 313.202 77.008 311.03C76.8932 305.446 75.6313 299.945 73.3006 294.87C72.1801 292.538 70.5678 290.206 68.0902 289.405C67.2877 289.176 66.4684 289.011 65.6398 288.913Z" fill="#455A64"/>
<path d="M70.8139 313.945C70.7038 313.945 70.5963 313.911 70.5065 313.847C70.4167 313.784 70.349 313.693 70.3129 313.589C64.6926 297.475 38.1032 283.457 28.4111 281.844C28.3424 281.833 28.2765 281.808 28.2173 281.771C28.1581 281.734 28.1067 281.686 28.0661 281.63C28.0255 281.573 27.9965 281.509 27.9806 281.441C27.9648 281.373 27.9625 281.303 27.9739 281.234C27.9853 281.165 28.0101 281.099 28.0469 281.04C28.0837 280.981 28.1318 280.93 28.1885 280.889C28.2452 280.848 28.3093 280.819 28.3772 280.803C28.4451 280.788 28.5154 280.785 28.5842 280.797C38.4949 282.436 65.6126 296.765 71.3969 313.234C71.4213 313.301 71.4321 313.371 71.4288 313.442C71.4254 313.512 71.4079 313.581 71.3773 313.645C71.3468 313.709 71.3037 313.766 71.2507 313.812C71.1978 313.859 71.136 313.895 71.069 313.917C70.9871 313.946 70.8999 313.955 70.8139 313.945Z" fill="white"/>
<path d="M46.9117 305.109C46.8099 305.1 46.7128 305.063 46.6321 305C46.5513 304.938 46.4904 304.853 46.4567 304.757C46.4229 304.66 46.4179 304.556 46.442 304.457C46.4662 304.358 46.5186 304.268 46.5929 304.198C50.9406 301.19 56.082 299.539 61.3678 299.452C61.4971 299.469 61.6159 299.532 61.702 299.63C61.788 299.728 61.8354 299.854 61.8354 299.985C61.8354 300.115 61.788 300.241 61.702 300.339C61.6159 300.437 61.4971 300.501 61.3678 300.518C56.3118 300.64 51.3991 302.222 47.2214 305.072C47.1239 305.114 47.0163 305.127 46.9117 305.109Z" fill="white"/>
<path d="M71.1057 326.406C70.5328 326.016 70.0596 325.498 69.7241 324.892C69.3887 324.286 69.2004 323.609 69.1746 322.917V133.093C69.2142 132.379 69.4212 131.685 69.7789 131.066C70.1365 130.448 70.6347 129.922 71.2332 129.531L294.552 0.592043C295.145 0.21857 295.829 0.0141137 296.53 0.000704793C297.231 -0.0127041 297.923 0.165442 298.53 0.515949C299.137 0.866456 299.637 1.37603 299.977 1.98978C300.316 2.60352 300.481 3.29816 300.454 3.99884V193.832C300.415 194.546 300.208 195.24 299.85 195.859C299.492 196.477 298.994 197.003 298.396 197.394L75.0773 326.333C74.4669 326.654 73.7898 326.828 73.1001 326.841C72.4105 326.854 71.7274 326.705 71.1057 326.406Z" fill="#455A64"/>
<path d="M74.6856 326.506H74.6036C74.5413 326.543 74.4737 326.571 74.4032 326.588H74.2483C74.1569 326.62 74.0622 326.641 73.9659 326.652C73.9048 326.677 73.8403 326.692 73.7747 326.697L73.4649 326.743C72.6521 326.853 71.8251 326.71 71.0966 326.333C70.5246 325.946 70.0523 325.428 69.7182 324.824C69.3842 324.219 69.1979 323.544 69.1746 322.853V157.423L73.0368 159.655V325.14C73.0368 326.051 73.5014 326.615 74.1755 326.615C74.266 326.629 74.3582 326.629 74.4487 326.615C74.5328 326.591 74.6127 326.554 74.6856 326.506Z" fill="#071F5D"/>
<path opacity="0.81" d="M74.6856 326.506H74.6036C74.5413 326.543 74.4737 326.571 74.4032 326.588H74.2483C74.1569 326.62 74.0622 326.641 73.9659 326.652C73.9048 326.677 73.8403 326.692 73.7747 326.697L73.4649 326.743C72.6521 326.853 71.8251 326.71 71.0966 326.333C70.5246 325.946 70.0523 325.428 69.7182 324.824C69.3842 324.219 69.1979 323.544 69.1746 322.853V157.423L73.0368 159.655V325.14C73.0368 326.051 73.5014 326.615 74.1755 326.615C74.266 326.629 74.3582 326.629 74.4487 326.615C74.5328 326.591 74.6127 326.554 74.6856 326.506Z" fill="#E0E0E0"/>
<path d="M73.0275 159.655L69.1653 157.423V194.178L73.0275 196.428V159.655Z" fill="#071F5D"/>
<path opacity="0.15" d="M73.0275 159.655L69.1653 157.423V194.178L73.0275 196.428V159.655Z" fill="black"/>
<path d="M73.6199 133.293C73.2553 133.907 73.0516 134.602 73.0278 135.316V159.655L69.1655 157.423V133.093C69.161 133.011 69.161 132.929 69.1655 132.847C69.1832 132.676 69.2105 132.505 69.2475 132.337C69.361 131.891 69.5325 131.463 69.7576 131.062L73.6199 133.293Z" fill="#263238"/>
<path d="M300.454 4.00808V14.9936L136.755 109.5C135.625 110.156 134.705 109.619 134.705 108.316V104.153C134.705 102.851 133.794 102.332 132.647 102.969L82.7925 131.763C82.194 132.154 81.6958 132.679 81.3382 133.298C80.9805 133.917 80.7735 134.611 80.7339 135.325V139.478C80.6952 140.191 80.4896 140.885 80.1336 141.504C79.7776 142.122 79.2812 142.649 78.6843 143.04L73.0276 146.338V135.407C73.0662 134.694 73.2718 134 73.6279 133.382C73.9839 132.763 74.4803 132.237 75.0771 131.845L298.405 2.8239C299.534 2.16805 300.454 2.69637 300.454 4.00808Z" fill="#37474F"/>
<path d="M300.463 193.841C300.422 194.553 300.215 195.246 299.857 195.863C299.499 196.48 299.002 197.004 298.405 197.394L75.0771 326.333C73.9476 326.98 73.0276 326.452 73.0276 325.14V146.338L78.6843 143.076C79.8139 142.421 81.6539 132.455 82.7925 131.799L131.809 103.497C132.947 102.842 135.625 110.202 136.755 109.546L300.454 14.9936V193.841H300.463Z" fill="#071F5D"/>
<path opacity="0.9" d="M300.463 193.841C300.422 194.553 300.215 195.246 299.857 195.863C299.499 196.48 299.002 197.004 298.405 197.394L75.0771 326.333C73.9476 326.98 73.0276 326.452 73.0276 325.14V146.338L78.6843 143.076C79.8139 142.421 81.6539 132.455 82.7925 131.799L131.809 103.497C132.947 102.842 135.625 110.202 136.755 109.546L300.454 14.9936V193.841H300.463Z" fill="white"/>
<g opacity="0.4">
<path d="M299.543 16.5695V193.841C299.499 194.388 299.332 194.918 299.054 195.391C298.777 195.864 298.396 196.269 297.94 196.574L74.6217 325.541C74.4839 325.634 74.3232 325.687 74.1571 325.695C73.9476 325.695 73.9385 325.24 73.9385 325.14V146.82L79.1398 143.814C79.9414 143.35 80.4515 141.756 81.5992 137.657C82.016 135.891 82.5891 134.165 83.3117 132.501L131.927 104.436C132.509 105.229 133.032 106.063 133.494 106.932C134.815 109.245 135.543 110.448 136.6 110.448C136.813 110.447 137.023 110.394 137.21 110.293L299.543 16.5695ZM300.454 14.9936L136.755 109.5C136.704 109.513 136.651 109.513 136.6 109.5C135.452 109.5 133.12 103.37 131.963 103.37C131.913 103.357 131.859 103.357 131.809 103.37L82.7925 131.763C81.6539 132.419 79.8139 142.384 78.6843 143.04L73.0276 146.338V325.14C73.0276 326.051 73.4921 326.606 74.1571 326.606C74.4788 326.593 74.7921 326.499 75.068 326.333L298.405 197.394C299.002 197.004 299.499 196.48 299.857 195.863C300.215 195.246 300.422 194.553 300.463 193.841V14.9936H300.454Z" fill="#071F5D"/>
</g>
<path d="M73.0276 159.655V196.428L300.454 65.1391V28.3566L73.0276 159.655Z" fill="#071F5D"/>
<path d="M300.454 14.9936V28.3566L73.0276 159.655V146.338L77.2451 143.896C78.3746 143.24 78.7572 142.238 79.2946 140.335L80.7339 135.361C81.1802 133.63 81.6448 132.455 82.7925 131.799L131.809 103.497C132.947 102.842 133.84 102.769 134.705 104.199L136.463 107.387C137.101 108.507 137.429 109.163 138.558 108.507L300.454 14.9936Z" fill="#F0F0F0"/>
<path d="M290.817 10.8944C292.247 10.0746 293.404 10.7395 293.404 12.3883C293.355 13.286 293.096 14.1597 292.646 14.9383C292.197 15.717 291.57 16.3788 290.817 16.8699C289.396 17.6897 288.239 17.0248 288.239 15.376C288.288 14.4794 288.547 13.6068 288.995 12.8285C289.443 12.0501 290.067 11.3876 290.817 10.8944Z" fill="#071F5D"/>
<path d="M281.525 16.2595C282.946 15.4397 284.103 16.1047 284.103 17.7534C284.054 18.6501 283.795 19.5226 283.348 20.301C282.9 21.0794 282.276 21.7419 281.525 22.2351C280.095 23.0549 278.938 22.39 278.938 20.7412C278.987 19.8434 279.247 18.9698 279.696 18.1911C280.146 17.4125 280.772 16.7507 281.525 16.2595Z" fill="#071F5D"/>
<path d="M272.207 21.6249C273.628 20.8051 274.794 21.47 274.794 23.1188C274.743 24.016 274.483 24.8889 274.033 25.6672C273.584 26.4455 272.958 27.1077 272.207 27.6005C270.777 28.4294 269.62 27.7553 269.62 26.1066C269.669 25.2088 269.928 24.3352 270.378 23.5565C270.827 22.7778 271.454 22.1161 272.207 21.6249Z" fill="#071F5D"/>
<path opacity="0.5" d="M82.4466 147.248L79.222 149.07L80.4517 146.711C80.5003 146.621 80.5258 146.521 80.5258 146.419C80.5258 146.318 80.5003 146.217 80.4517 146.128C80.3606 146.019 80.1967 146.128 80.0873 146.301L78.3384 149.671C78.3346 149.714 78.3346 149.756 78.3384 149.799C78.3344 149.856 78.3344 149.914 78.3384 149.972C78.3328 150.023 78.3328 150.075 78.3384 150.127C78.334 150.151 78.334 150.176 78.3384 150.2L80.0873 151.548C80.1133 151.564 80.1433 151.573 80.1739 151.573C80.2045 151.573 80.2344 151.564 80.2604 151.548C80.3439 151.48 80.4096 151.392 80.4517 151.293C80.5428 151.074 80.5337 150.828 80.4517 150.746L79.222 149.835L82.4466 148.013C82.531 147.948 82.5989 147.864 82.6448 147.767C82.6907 147.671 82.7133 147.565 82.7108 147.458C82.7108 147.248 82.5923 147.175 82.4466 147.248Z" fill="#455A64"/>
<path opacity="0.5" d="M85.143 145.7L88.3676 143.878L87.1379 142.967C87.0286 142.885 87.0195 142.639 87.1379 142.42C87.2563 142.202 87.3929 142.083 87.5022 142.165L89.2512 143.514C89.2741 143.53 89.2928 143.552 89.3058 143.577C89.3154 143.625 89.3154 143.675 89.3058 143.723C89.3154 143.78 89.3154 143.839 89.3058 143.896C89.3058 143.896 89.3058 143.896 89.3058 143.942C89.2915 143.986 89.2732 144.028 89.2512 144.069L87.5022 147.403C87.4643 147.485 87.4044 147.554 87.3292 147.603C87.3036 147.629 87.2693 147.643 87.2335 147.643C87.1978 147.643 87.1634 147.629 87.1379 147.603C87.0867 147.515 87.0598 147.414 87.0598 147.312C87.0598 147.21 87.0867 147.109 87.1379 147.021L88.3676 144.652L85.143 146.52C84.9972 146.601 84.8879 146.52 84.8879 146.264C84.8822 146.157 84.9023 146.049 84.9467 145.951C84.9911 145.853 85.0584 145.767 85.143 145.7Z" fill="#455A64"/>
<path opacity="0.5" d="M95.7 136.409C95.7 136.217 95.5087 136.245 95.4267 136.454L94.9804 137.538C94.2243 137.456 93.3134 138.185 92.694 139.497C91.9015 141.182 91.9015 143.14 92.694 143.951C92.8886 144.133 93.1404 144.242 93.4064 144.258C93.6723 144.275 93.9357 144.198 94.1514 144.042C94.7955 143.61 95.299 142.999 95.5998 142.284C95.6503 142.199 95.6769 142.101 95.6769 142.002C95.6769 141.902 95.6503 141.805 95.5998 141.719C95.4905 141.619 95.3265 141.719 95.2263 141.929C94.6342 143.186 93.6595 143.751 93.0675 143.177C92.4754 142.603 92.4663 141.109 93.0675 139.843C93.4865 138.932 94.0968 138.413 94.6342 138.385L94.2972 139.196C94.2152 139.406 94.2972 139.606 94.4247 139.515L95.7455 138.659C95.796 138.613 95.8353 138.557 95.8606 138.493C95.8858 138.43 95.8963 138.362 95.8913 138.294L95.7 136.409Z" fill="#455A64"/>
<path opacity="0.5" d="M130.397 109.555L131.572 107.059C131.641 106.942 131.677 106.808 131.677 106.672C131.677 106.536 131.641 106.402 131.572 106.285C131.435 106.157 131.207 106.285 131.071 106.576L129.896 109.063L128.711 107.934C128.575 107.797 128.347 107.934 128.21 108.225C128.142 108.342 128.105 108.476 128.105 108.612C128.105 108.748 128.142 108.882 128.21 108.999L129.385 110.129L128.21 112.634C128.142 112.751 128.105 112.885 128.105 113.021C128.105 113.157 128.142 113.291 128.21 113.408C128.246 113.438 128.291 113.454 128.338 113.454C128.384 113.454 128.43 113.438 128.465 113.408C128.578 113.338 128.665 113.232 128.711 113.107L129.896 110.612L131.071 111.75C131.105 111.779 131.149 111.795 131.194 111.795C131.239 111.795 131.282 111.779 131.317 111.75C131.43 111.678 131.519 111.573 131.572 111.45C131.641 111.332 131.677 111.199 131.677 111.062C131.677 110.926 131.641 110.793 131.572 110.675L130.397 109.555Z" fill="#455A64"/>
<path d="M100.009 139.469V135.315C100.051 134.603 100.26 133.91 100.619 133.293C100.978 132.676 101.478 132.152 102.077 131.763L286.854 25.1866C287.993 24.5308 288.913 25.0591 288.913 26.3708V30.4699C288.873 31.1835 288.666 31.8777 288.309 32.4964C287.951 33.1151 287.453 33.641 286.854 34.0316L102.077 140.663C100.929 141.318 100.009 140.781 100.009 139.469Z" fill="white"/>
<path d="M284.04 34.2956C283.992 34.3052 283.942 34.3052 283.894 34.2956C283.798 34.2474 283.72 34.1682 283.674 34.0708C283.628 33.9734 283.615 33.8634 283.639 33.7582L283.839 32.0365L283.001 31.4353C282.942 31.3917 282.894 31.3338 282.862 31.2671C282.83 31.2003 282.815 31.1266 282.819 31.0528C282.82 30.9274 282.848 30.8037 282.901 30.6904C282.955 30.5771 283.032 30.4769 283.129 30.3969L284.331 29.486C284.372 29.4496 284.4 29.402 284.413 29.3494L284.951 27.5822C284.981 27.4533 285.048 27.3359 285.143 27.2439C285.239 27.1518 285.358 27.089 285.488 27.063C285.569 27.0602 285.65 27.0811 285.719 27.1232C285.789 27.1652 285.845 27.2266 285.88 27.2998L286.363 28.3383L287.456 27.9192C287.533 27.8863 287.618 27.8783 287.699 27.8963C287.781 27.9142 287.855 27.9573 287.911 28.0194C287.983 28.1291 288.021 28.2573 288.021 28.3884C288.021 28.5194 287.983 28.6476 287.911 28.7573L287 30.3969C286.991 30.445 286.991 30.4945 287 30.5427L287.21 32.0274C287.222 32.1489 287.208 32.2717 287.167 32.3867C287.126 32.5018 287.059 32.6062 286.973 32.6924C286.924 32.7502 286.863 32.7954 286.793 32.8239C286.723 32.8525 286.647 32.8636 286.572 32.8564L285.488 32.7197L284.441 34.1225C284.39 34.1783 284.328 34.2226 284.259 34.2524C284.19 34.2822 284.115 34.297 284.04 34.2956ZM283.347 30.9526L284.186 31.5538C284.256 31.6126 284.309 31.6894 284.34 31.7759C284.37 31.8625 284.377 31.9557 284.359 32.0457L284.258 33.4667L285.169 32.3189C285.221 32.2449 285.291 32.1853 285.372 32.1455C285.454 32.1057 285.544 32.087 285.634 32.0912L286.718 32.2278C286.718 32.2278 286.763 32.0821 286.718 32.0092L286.508 30.5244C286.494 30.3601 286.529 30.1952 286.609 30.0508L287.519 28.4111L286.517 28.7937C286.47 28.8146 286.418 28.8258 286.366 28.8266C286.314 28.8273 286.262 28.8177 286.214 28.7981C286.165 28.7786 286.121 28.7497 286.084 28.7129C286.047 28.6762 286.018 28.6324 285.998 28.5842L285.552 27.6733L285.014 29.4405C284.97 29.6029 284.874 29.7467 284.741 29.8504L283.539 30.7613C283.454 30.7996 283.386 30.8676 283.347 30.9526Z" fill="#E0E0E0"/>
<g opacity="0.5">
<path d="M291.318 24.6219C291.16 24.6235 291.006 24.5726 290.88 24.4771C290.755 24.3817 290.665 24.2472 290.624 24.0948C290.583 23.9424 290.594 23.7807 290.656 23.6354C290.717 23.49 290.825 23.3692 290.962 23.2919L296.738 19.958C296.818 19.9108 296.908 19.8799 297 19.8671C297.093 19.8544 297.187 19.86 297.278 19.8837C297.368 19.9074 297.453 19.9486 297.528 20.0052C297.602 20.0617 297.665 20.1323 297.712 20.2131C297.759 20.2938 297.79 20.3831 297.803 20.4758C297.816 20.5684 297.81 20.6627 297.787 20.7532C297.763 20.8437 297.722 20.9287 297.665 21.0032C297.609 21.0778 297.538 21.1405 297.457 21.1877L291.673 24.5308C291.564 24.5917 291.442 24.6231 291.318 24.6219Z" fill="#455A64"/>
<path d="M291.318 27.965C291.193 27.9648 291.07 27.9319 290.961 27.8696C290.852 27.8073 290.762 27.7177 290.698 27.6097C290.651 27.5285 290.621 27.4387 290.609 27.3456C290.596 27.2525 290.603 27.1579 290.627 27.0673C290.652 26.9766 290.694 26.8918 290.752 26.8176C290.809 26.7434 290.881 26.6813 290.963 26.635L296.738 23.292C296.9 23.2173 297.085 23.2058 297.256 23.2599C297.426 23.314 297.571 23.4297 297.661 23.5844C297.75 23.7392 297.779 23.9219 297.742 24.0969C297.704 24.2719 297.603 24.4266 297.457 24.5308L291.673 27.8647C291.565 27.9285 291.443 27.963 291.318 27.965Z" fill="#455A64"/>
<path d="M291.318 31.2989C291.192 31.2987 291.069 31.2659 290.961 31.2036C290.852 31.1412 290.762 31.0517 290.698 30.9437C290.651 30.8631 290.621 30.7741 290.609 30.6817C290.597 30.5893 290.603 30.4954 290.628 30.4055C290.652 30.3156 290.694 30.2315 290.752 30.1581C290.809 30.0847 290.881 30.0235 290.962 29.9781L296.737 26.6351C296.818 26.5878 296.907 26.5569 297 26.5442C297.093 26.5314 297.187 26.5371 297.278 26.5607C297.368 26.5844 297.453 26.6257 297.528 26.6822C297.602 26.7387 297.665 26.8094 297.712 26.8901C297.759 26.9709 297.79 27.0601 297.803 27.1528C297.816 27.2455 297.81 27.3398 297.786 27.4303C297.763 27.5208 297.722 27.6058 297.665 27.6803C297.608 27.7549 297.538 27.8176 297.457 27.8648L291.673 31.2078C291.564 31.2688 291.442 31.3002 291.318 31.2989Z" fill="#455A64"/>
</g>
<path d="M73.0275 146.292V159.655L69.1653 157.423V144.069L73.0275 146.292Z" fill="#E0E0E0"/>
<path d="M218.883 102.312L217.235 103.275L222.002 85.4517L223.624 84.503L228.391 96.7533L226.743 97.7168L222.864 87.3266L222.762 87.3859L218.883 102.312ZM219.491 96.0822L226.134 92.1987V93.814L219.491 97.6975V96.0822ZM230.413 95.5712V80.5343L231.909 79.6598V85.2105L232.035 85.1364C232.145 84.8764 232.297 84.5378 232.492 84.1207C232.69 83.6962 232.974 83.2566 233.341 82.8018C233.713 82.3397 234.216 81.9234 234.85 81.5528C235.67 81.0735 236.392 80.8885 237.017 80.9977C237.643 81.1069 238.131 81.4946 238.482 82.1608C238.832 82.827 239.008 83.7524 239.008 84.937C239.008 86.1313 238.832 87.2691 238.482 88.3503C238.131 89.4266 237.645 90.3862 237.024 91.229C236.403 92.067 235.686 92.7231 234.875 93.1974C234.25 93.5631 233.749 93.7359 233.373 93.7159C232.997 93.691 232.707 93.5837 232.504 93.3939C232.302 93.1992 232.145 93.0312 232.035 92.8898L231.858 92.9936V94.7264L230.413 95.5712ZM231.883 89.0727C231.883 89.9244 231.991 90.6128 232.207 91.1378C232.422 91.6579 232.737 91.9805 233.151 92.1055C233.565 92.2256 234.072 92.1103 234.672 91.7595C235.298 91.3939 235.82 90.8979 236.238 90.2715C236.66 89.6378 236.977 88.9336 237.189 88.1591C237.404 87.3772 237.512 86.5849 237.512 85.7821C237.512 84.9892 237.406 84.3363 237.195 83.8235C236.988 83.3033 236.673 82.9807 236.251 82.8558C235.832 82.7234 235.306 82.8425 234.672 83.2131C234.064 83.5688 233.552 84.0464 233.138 84.6458C232.724 85.2404 232.411 85.9176 232.2 86.6774C231.989 87.4324 231.883 88.2308 231.883 89.0727ZM245.251 87.1314C244.372 87.6452 243.601 87.8538 242.938 87.757C242.278 87.6578 241.763 87.2813 241.391 86.6274C241.023 85.971 240.84 85.0604 240.84 83.8954C240.84 82.7207 241.023 81.5877 241.391 80.4966C241.763 79.4031 242.278 78.4213 242.938 77.5513C243.601 76.6789 244.372 75.9857 245.251 75.4719C246.13 74.9581 246.899 74.7507 247.558 74.8499C248.222 74.9467 248.737 75.3257 249.105 75.9869C249.477 76.6457 249.663 77.5625 249.663 78.7372C249.663 79.9022 249.477 81.029 249.105 82.1177C248.737 83.2039 248.222 84.1832 247.558 85.0557C246.899 85.9256 246.13 86.6175 245.251 87.1314ZM245.251 85.5748C245.919 85.1845 246.468 84.6651 246.899 84.0166C247.33 83.3682 247.649 82.6604 247.856 81.8932C248.063 81.126 248.167 80.3655 248.167 79.6117C248.167 78.8579 248.063 78.2161 247.856 77.6861C247.649 77.1561 247.33 76.8165 246.899 76.6671C246.468 76.5177 245.919 76.6381 245.251 77.0285C244.584 77.4188 244.034 77.9406 243.603 78.594C243.172 79.2473 242.853 79.96 242.646 80.7321C242.439 81.5042 242.336 82.2671 242.336 83.0209C242.336 83.7747 242.439 84.4141 242.646 84.9392C242.853 85.4643 243.172 85.7991 243.603 85.9436C244.034 86.0881 244.584 85.9651 245.251 85.5748ZM258.082 74.7844V68.1177L259.578 67.2432V78.5208L258.082 79.3954V77.4864L257.981 77.5457C257.752 78.2518 257.397 78.9463 256.916 79.6293C256.434 80.3074 255.826 80.8614 255.09 81.2912C254.482 81.647 253.941 81.809 253.468 81.7773C252.994 81.7407 252.622 81.4882 252.352 81.0198C252.082 80.5465 251.946 79.8301 251.946 78.8707V71.7047L253.442 70.8302V77.8787C253.442 78.7011 253.641 79.2409 254.038 79.4981C254.439 79.7529 254.951 79.6987 255.572 79.3356C255.944 79.1182 256.322 78.787 256.707 78.3419C257.095 77.8943 257.421 77.3664 257.683 76.758C257.949 76.1471 258.082 75.4893 258.082 74.7844ZM266.552 63.1661V64.6345L261.506 67.5842V66.1157L266.552 63.1661ZM262.977 62.5541L264.473 61.6796V72.4286C264.473 72.9181 264.534 73.2494 264.657 73.4225C264.783 73.5882 264.944 73.6559 265.138 73.6254C265.337 73.5876 265.546 73.5045 265.766 73.376C265.931 73.2797 266.066 73.1909 266.172 73.1095C266.277 73.0233 266.362 72.9543 266.425 72.9026L266.729 74.2812C266.628 74.3846 266.486 74.5114 266.305 74.6617C266.123 74.8169 265.893 74.976 265.614 75.139C265.191 75.3861 264.777 75.5229 264.371 75.5496C263.97 75.5738 263.636 75.4484 263.37 75.1732C263.108 74.8957 262.977 74.4289 262.977 73.773V62.5541ZM279.958 61.9955V55.3287L281.454 54.4542V65.7319L279.958 66.6064V64.6974L279.856 64.7567C279.628 65.4628 279.273 66.1573 278.792 66.8403C278.31 67.5185 277.701 68.0724 276.966 68.5023C276.358 68.858 275.817 69.02 275.343 68.9884C274.87 68.9518 274.498 68.6993 274.228 68.2308C273.957 67.7575 273.822 67.0411 273.822 66.0818V58.9157L275.318 58.0412V65.0898C275.318 65.9121 275.517 66.4519 275.914 66.7092C276.315 66.9639 276.827 66.9098 277.448 66.5466C277.82 66.3292 278.198 65.998 278.582 65.5529C278.971 65.1054 279.297 64.5774 279.559 63.969C279.825 63.3582 279.958 62.7003 279.958 61.9955ZM291.09 51.3465L289.746 52.5726C289.662 52.3626 289.537 52.1834 289.372 52.035C289.212 51.8792 288.992 51.8021 288.713 51.8036C288.434 51.8051 288.077 51.9331 287.642 52.1876C287.046 52.5359 286.549 52.9852 286.152 53.5356C285.759 54.0786 285.563 54.5924 285.563 55.077C285.563 55.5078 285.698 55.7689 285.968 55.8604C286.239 55.952 286.661 55.913 287.236 55.7434L288.681 55.3097C289.552 55.0455 290.2 55.0408 290.627 55.2954C291.054 55.5452 291.267 56.0641 291.267 56.8522C291.267 57.4983 291.107 58.1698 290.786 58.8666C290.469 59.5609 290.025 60.2217 289.455 60.8489C288.884 61.4761 288.221 62.0108 287.464 62.453C286.471 63.0335 285.649 63.2644 284.999 63.1456C284.348 63.0267 283.936 62.5383 283.763 61.6802L285.182 60.4389C285.318 60.9668 285.573 61.2726 285.949 61.3562C286.33 61.4374 286.826 61.2988 287.439 60.9406C288.136 60.533 288.69 60.0381 289.1 59.4558C289.514 58.8662 289.721 58.329 289.721 57.8445C289.721 57.4529 289.602 57.1941 289.366 57.0681C289.129 56.9372 288.766 56.949 288.276 57.1034L286.653 57.6115C285.761 57.888 285.106 57.8916 284.688 57.6222C284.274 57.3455 284.067 56.8179 284.067 56.0397C284.067 55.4033 284.221 54.7503 284.53 54.0804C284.842 53.4081 285.267 52.7756 285.804 52.1829C286.344 51.5877 286.957 51.09 287.642 50.6897C288.605 50.1265 289.362 49.929 289.911 50.0974C290.465 50.2632 290.858 50.6796 291.09 51.3465Z" fill="white"/>
<path opacity="0.1" d="M82.8926 205.1L145.791 168.782V271.323L82.7104 307.541L82.8926 205.1Z" fill="#071F5D"/>
<path opacity="0.15" d="M159.655 162.67L235.534 118.865C237.064 117.954 238.267 118.646 238.267 120.349C238.21 121.292 237.933 122.208 237.458 123.024C236.984 123.84 236.325 124.534 235.534 125.05L159.646 169.347C158.125 170.258 156.913 169.529 156.913 167.771V167.452C156.965 166.496 157.239 165.566 157.715 164.735C158.192 163.905 158.856 163.197 159.655 162.67Z" fill="#071F5D"/>
<path opacity="0.1" d="M158.863 175.942L284.422 103.452C285.515 102.823 286.399 103.27 286.399 104.445C286.351 105.108 286.147 105.751 285.803 106.321C285.46 106.891 284.987 107.372 284.422 107.724L158.863 180.214C157.779 180.843 156.895 180.396 156.895 179.221C156.943 178.559 157.146 177.917 157.488 177.347C157.829 176.777 158.3 176.296 158.863 175.942Z" fill="#071F5D"/>
<path opacity="0.1" d="M158.863 184.523L284.422 112.033C285.515 111.404 286.399 111.85 286.399 113.025C286.351 113.689 286.147 114.332 285.803 114.902C285.46 115.472 284.987 115.952 284.422 116.305L158.863 188.795C157.779 189.423 156.895 188.977 156.895 187.793C156.944 187.132 157.148 186.492 157.49 185.924C157.831 185.356 158.302 184.876 158.863 184.523Z" fill="#071F5D"/>
<path opacity="0.1" d="M158.863 193.094L284.422 120.604C285.515 119.976 286.399 120.422 286.399 121.606C286.349 122.268 286.145 122.909 285.801 123.477C285.458 124.046 284.985 124.525 284.422 124.876L158.863 197.348C157.779 197.977 156.895 197.531 156.895 196.346C156.948 195.689 157.154 195.053 157.495 194.488C157.837 193.924 158.305 193.447 158.863 193.094Z" fill="#071F5D"/>
<path opacity="0.1" d="M158.863 201.675L284.422 129.185C285.515 128.556 286.399 129.003 286.399 130.178C286.351 130.841 286.147 131.484 285.803 132.054C285.46 132.624 284.987 133.105 284.422 133.457L158.863 205.947C157.779 206.576 156.895 206.129 156.895 204.954C156.943 204.292 157.146 203.65 157.488 203.08C157.829 202.51 158.3 202.029 158.863 201.675Z" fill="#071F5D"/>
<path opacity="0.1" d="M158.863 210.256L246.474 159.245C247.558 158.617 248.441 159.063 248.441 160.247C248.392 160.908 248.188 161.548 247.847 162.116C247.505 162.684 247.035 163.164 246.474 163.517L158.863 214.528C157.779 215.157 156.895 214.71 156.895 213.526C156.944 212.865 157.148 212.225 157.49 211.657C157.831 211.089 158.302 210.609 158.863 210.256Z" fill="#071F5D"/>
<path opacity="0.1" d="M158.863 227.408L284.422 154.918C285.515 154.29 286.399 154.736 286.399 155.911C286.351 156.575 286.147 157.218 285.803 157.787C285.46 158.357 284.987 158.838 284.422 159.19L158.863 231.68C157.779 232.309 156.895 231.863 156.895 230.688C156.943 230.025 157.146 229.383 157.488 228.813C157.829 228.244 158.3 227.762 158.863 227.408Z" fill="#071F5D"/>
<path opacity="0.1" d="M158.863 235.989L284.422 163.499C285.515 162.87 286.399 163.317 286.399 164.492C286.351 165.155 286.147 165.798 285.803 166.368C285.46 166.938 284.987 167.419 284.422 167.771L158.863 240.261C157.779 240.89 156.895 240.443 156.895 239.259C156.944 238.598 157.148 237.958 157.49 237.39C157.831 236.822 158.302 236.342 158.863 235.989Z" fill="#071F5D"/>
<path opacity="0.1" d="M158.863 244.561L284.422 172.071C285.515 171.442 286.399 171.888 286.399 173.073C286.349 173.735 286.145 174.376 285.801 174.944C285.458 175.512 284.985 175.991 284.422 176.343L158.863 248.842C157.779 249.471 156.895 249.024 156.895 247.84C156.944 247.178 157.148 246.536 157.49 245.967C157.831 245.397 158.301 244.916 158.863 244.561Z" fill="#071F5D"/>
<path opacity="0.1" d="M158.863 253.141L205.009 226.215C206.093 225.586 206.977 226.033 206.977 227.217C206.927 227.878 206.724 228.518 206.382 229.086C206.04 229.654 205.57 230.134 205.009 230.487L158.872 257.414C157.788 258.042 156.904 257.596 156.904 256.421C156.951 255.759 157.152 255.117 157.493 254.548C157.833 253.978 158.302 253.497 158.863 253.141Z" fill="#071F5D"/>
<path d="M326.652 203.907C333.329 182.246 339.823 167.972 333.201 163.554C327.043 164.701 324.283 167.753 322.972 175.878C321.596 184.395 318.736 196.274 317.069 203.124C315.628 208.848 313.566 214.398 310.92 219.675C310.521 220.406 309.876 220.971 309.098 221.269C307.04 222.08 306.056 223.091 304.38 224.33C303.059 225.24 302.094 225.368 302.157 225.76C302.265 226.199 302.542 226.579 302.926 226.817C303.311 227.056 303.774 227.134 304.216 227.035C305.206 226.848 306.169 226.542 307.085 226.124C306.297 228.12 305.071 229.913 303.496 231.371C300.263 234.104 300.764 236.773 305.947 237.082C307.768 237.192 312.114 235.497 316.112 228.693C317.465 226.157 318.654 223.537 319.674 220.85C322.461 213.872 325.313 208.279 326.652 203.907Z" fill="#FFA8A7"/>
<path d="M334.358 163.299C334.358 163.299 329.221 163.034 326.105 166.469C322.99 169.903 319.365 190.416 319.365 190.416C319.365 190.416 322.771 195.098 331.753 193.149L334.358 163.299Z" fill="#071F5D"/>
<path opacity="0.3" d="M334.358 163.299C334.358 163.299 329.221 163.034 326.105 166.469C322.99 169.903 319.365 190.416 319.365 190.416C319.365 190.416 322.771 195.098 331.753 193.149L334.358 163.299Z" fill="black"/>
<path d="M358.415 308.825H351.52V321.123H358.415V308.825Z" fill="#FFA8A7"/>
<path d="M334.504 308.169L327.608 308.424L327.262 295.408L334.504 295.162V308.169Z" fill="#FFA8A7"/>
<path d="M359.39 202.358C359.39 209.217 358.379 264.419 358.379 264.419C358.534 266.395 360.31 270.039 359.927 277.618C359.408 287.911 358.707 314.965 358.707 314.965C357.523 315.574 356.217 315.906 354.886 315.934C353.556 315.962 352.236 315.687 351.028 315.129C351.028 315.129 344.506 277.645 343.276 267.434C342.192 258.534 340.361 228.547 340.361 228.547L336.626 263.407C337.422 267.159 337.71 271.001 337.483 274.83C337.155 279.549 334.941 304.134 334.941 304.134C333.749 304.837 332.412 305.259 331.033 305.367C329.654 305.476 328.267 305.27 326.98 304.763C326.98 304.763 323.054 267.743 322.972 263.407C322.881 258.47 325.267 202.276 325.267 202.276L359.39 202.358Z" fill="#37474F"/>
<path d="M351.52 317.588V316.559C350.855 316.86 349.324 322.935 346.592 325.559C344.415 327.617 341.445 330.004 340.689 332.309C339.933 334.613 344.825 336.034 346.856 335.661C349.215 335.223 353.314 333.493 354.334 331.88C355.355 330.268 355.847 327.909 356.685 326.734C357.523 325.559 359.417 324.247 359.891 322.881C360.146 322.134 359.891 320.494 359.499 319.109C359.108 317.725 358.834 316.441 358.415 316.559V317.342C357.448 318.144 356.228 318.577 354.972 318.563C353.961 318.59 351.511 318.381 351.52 317.588Z" fill="#263238"/>
<path d="M327.535 306.202C327.18 306.202 326.888 306.739 326.096 307.632C324.925 308.867 323.555 309.895 322.042 310.675C319.455 312.023 314.436 314.09 312.159 315.156C310.747 315.821 310.811 317.607 312.277 318.627C313.744 319.647 317.287 320.376 321.541 319.383C323.855 318.845 326.879 316.65 328.783 316.732C330.687 316.814 334.249 316.832 335.679 315.821C337.109 314.81 336.526 312.651 336.125 310.793C335.688 308.771 335.15 305.61 334.504 305.747V306.448C333.675 307.751 329.393 308.27 327.572 307.359L327.535 306.202Z" fill="#263238"/>
<path d="M340.361 228.556C336.773 227.384 333.492 225.423 330.76 222.817C330.76 222.817 332.582 226.461 338.12 229.795L336.945 260.93L340.361 228.556Z" fill="#263238"/>
<path d="M355.801 164.938C355.801 164.938 361.193 165.439 360.811 175.714L359.617 192.111V216.705C354.544 222.453 332.062 222.025 324.365 216.241C324.365 216.241 325.231 187.155 325.75 175.96C326.123 168.008 327.954 164 335.77 163.126L345.38 163.545L355.801 164.938Z" fill="#071F5D"/>
<path opacity="0.3" d="M340.47 170.331L339.232 178.966L336.353 178.912L339.605 179.431L340.47 170.331Z" fill="black"/>
<path d="M347.666 141.783C347.723 144.563 346.673 147.252 344.748 149.259C342.823 151.265 340.181 152.426 337.4 152.486C331.726 152.486 327.38 147.685 327.125 141.792C326.679 131.344 331.726 131.089 337.4 131.089C340.179 131.148 342.82 132.308 344.745 134.313C346.669 136.318 347.72 139.004 347.666 141.783Z" fill="#263238"/>
<path d="M353.487 147.075C353.487 147.075 351.911 154.782 351.283 156.048C350.876 156.82 350.183 157.402 349.352 157.669L349.461 152.249L353.487 147.075Z" fill="#263238"/>
<path d="M351.538 136.035C351.538 136.035 352.667 135.753 353.87 137.629C354.899 139.232 355.136 142.84 353.514 147.075L350.554 147.431L351.538 136.035Z" fill="#263238"/>
<path d="M349.661 147.431C350.254 147.804 351.101 146.611 351.839 145.809C352.576 145.008 354.963 143.924 356.165 146.538C357.368 149.152 355.109 152.741 353.223 153.361C349.971 154.426 349.488 152.249 349.488 152.249L349.233 164.456C344.925 171.133 335.151 170.887 338.667 164.137V160.42C337.22 160.661 335.75 160.74 334.285 160.657C331.899 160.265 330.396 158.307 329.667 155.611C328.501 151.284 328.064 147.795 329.048 139.278C330.141 129.941 340.561 129.859 346.2 133.585C351.839 137.31 349.661 147.431 349.661 147.431Z" fill="#FFA8A7"/>
<path d="M349.288 161.723C348.285 163.774 346.846 165.58 345.07 167.015C343.561 168.13 341.81 168.873 339.96 169.183C341.486 170.217 342.737 171.609 343.604 173.237C344.688 175.605 352.275 169.074 352.203 164.437C352.203 164.437 351.018 159.783 349.379 159.491L349.288 161.723Z" fill="#263238"/>
<path d="M339.96 169.183C339.96 169.183 337.619 168.026 338.667 164.137V160.42L337.638 160.557C336.438 161.726 335.587 163.205 335.178 164.829C334.941 165.895 334.358 171.287 335.388 172.353C336.417 173.419 337.856 169.475 339.96 169.183Z" fill="#263238"/>
<path d="M345.672 137.228C345.938 137.17 346.215 137.186 346.473 137.274C347.384 137.675 347.548 140.426 347.703 141.218C348.222 143.887 348.659 148.414 349.661 148.432C349.962 148.432 351.101 146.474 351.838 145.773C352.868 144.798 351.538 135.999 351.538 135.999C351.809 135.239 351.861 134.418 351.687 133.63C351.513 132.842 351.12 132.119 350.554 131.544C348.732 129.431 345.799 128.957 343.148 128.811C340.024 128.638 336.854 128.875 333.775 128.192C332.808 127.923 331.825 127.713 330.833 127.564C330.791 127.546 330.746 127.537 330.701 127.537C330.655 127.537 330.61 127.546 330.569 127.564C330.468 127.646 330.487 127.8 330.514 127.928C330.707 128.85 331.032 129.74 331.48 130.57C329.647 130.425 327.837 130.067 326.087 129.504C325.986 129.472 325.878 129.472 325.777 129.504C325.568 129.568 325.531 129.841 325.55 130.059C325.668 132.264 326.715 135.598 328.51 136.891C330.101 137.933 331.948 138.516 333.848 138.576C338.676 138.759 341.645 137.738 345.672 137.228Z" fill="#263238"/>
<path d="M351.538 136.5L355.136 134.487C355.026 134.239 354.866 134.017 354.665 133.835C354.464 133.652 354.228 133.514 353.971 133.428C353.713 133.342 353.441 133.311 353.171 133.337C352.901 133.362 352.64 133.444 352.403 133.576C351.924 133.871 351.572 134.333 351.412 134.873C351.252 135.412 351.297 135.991 351.538 136.5Z" fill="#263238"/>
<path d="M338.676 160.42C338.676 160.42 344.005 159.3 345.872 158.27C346.978 157.662 347.876 156.735 348.45 155.61C348.172 156.741 347.674 157.806 346.983 158.744C345.626 160.566 338.676 161.896 338.676 161.896V160.42Z" fill="#F28F8F"/>
<path d="M339.96 146.046C339.979 146.251 340.058 146.447 340.186 146.608C340.314 146.77 340.487 146.891 340.682 146.956C340.878 147.022 341.089 147.029 341.288 146.978C341.488 146.926 341.668 146.817 341.808 146.665C341.947 146.513 342.039 146.323 342.072 146.12C342.106 145.916 342.08 145.707 341.997 145.518C341.914 145.329 341.778 145.168 341.606 145.055C341.434 144.942 341.232 144.881 341.026 144.88C340.878 144.885 340.734 144.919 340.6 144.98C340.466 145.042 340.346 145.129 340.247 145.238C340.147 145.347 340.071 145.474 340.022 145.613C339.972 145.752 339.951 145.899 339.96 146.046Z" fill="#263238"/>
<path d="M341.646 141.437L343.932 142.748C344.097 142.433 344.141 142.068 344.055 141.722C343.97 141.376 343.761 141.074 343.467 140.872C343.314 140.774 343.142 140.711 342.962 140.686C342.782 140.662 342.599 140.677 342.425 140.731C342.252 140.785 342.092 140.876 341.957 140.998C341.823 141.12 341.716 141.269 341.646 141.437Z" fill="#263238"/>
<path d="M339.159 153.734L336.717 154.645C336.766 154.813 336.848 154.969 336.959 155.104C337.07 155.238 337.207 155.349 337.363 155.428C337.518 155.508 337.688 155.554 337.862 155.565C338.036 155.576 338.211 155.551 338.375 155.492C338.7 155.348 338.959 155.088 339.104 154.763C339.249 154.439 339.268 154.072 339.159 153.734Z" fill="#F28F8F"/>
<path d="M330.15 142.411L332.236 140.735C332.142 140.589 332.018 140.463 331.871 140.368C331.725 140.273 331.561 140.21 331.388 140.183C331.216 140.157 331.04 140.167 330.872 140.213C330.704 140.26 330.548 140.342 330.414 140.453C330.135 140.689 329.954 141.02 329.906 141.381C329.857 141.743 329.944 142.11 330.15 142.411Z" fill="#263238"/>
<path d="M331.07 145.727C331.064 145.873 331.087 146.018 331.137 146.155C331.187 146.291 331.264 146.417 331.363 146.523C331.462 146.63 331.582 146.716 331.714 146.776C331.847 146.837 331.99 146.87 332.136 146.875C332.442 146.875 332.737 146.753 332.954 146.536C333.171 146.319 333.292 146.025 333.292 145.718C333.292 145.411 333.171 145.117 332.954 144.9C332.737 144.683 332.442 144.561 332.136 144.561C331.841 144.578 331.564 144.709 331.365 144.927C331.166 145.145 331.06 145.432 331.07 145.727Z" fill="#263238"/>
<path d="M336.79 144.835L336.663 151.584L332.828 150.701L336.79 144.835Z" fill="#F28F8F"/>
<path d="M366.294 151.621C367.834 149.58 370.949 154.107 372.388 157.232C373.828 160.356 373.855 162.123 372.671 163.362C371.487 164.601 369.255 163.854 367.023 160.894C364.791 157.933 365.411 153.124 366.294 151.621Z" fill="#071F5D"/>
<path opacity="0.5" d="M366.294 151.621C367.834 149.58 370.949 154.107 372.388 157.232C373.828 160.356 373.855 162.123 372.671 163.362C371.487 164.601 369.255 163.854 367.023 160.894C364.791 157.933 365.411 153.124 366.294 151.621Z" fill="black"/>
<path d="M377.171 152.222C371.705 164.975 364.099 172.162 360.683 180.369C356.211 180.068 352.722 169.256 356.056 164.638C356.056 164.638 369.155 150.455 370.339 144.88C371.396 139.934 372.808 131.772 372.689 127.573C372.642 126.889 372.355 126.244 371.879 125.751C370.503 124.266 370.503 123.082 369.619 121.451C368.936 120.176 368.18 119.703 368.399 119.411C368.682 119.108 369.069 118.923 369.483 118.892C369.896 118.862 370.306 118.989 370.631 119.247C371.263 119.709 371.829 120.255 372.316 120.869C372.484 119.231 372.217 117.578 371.541 116.077C370.02 112.634 370.394 110.885 375.03 112.106C377.945 112.88 379.767 115.303 380.204 122.29C380.407 125.197 380.425 128.115 380.259 131.025C379.749 136.409 379.43 142.02 378.765 146.511C378.478 148.474 377.942 150.394 377.171 152.222Z" fill="#FFA8A7"/>
<path d="M354.69 164.793L366.24 151.584C366.24 151.584 364.864 154.8 367.87 159.491C370.876 164.182 372.662 163.362 372.662 163.362C372.662 163.362 365.839 173.319 364.017 176.653C362.195 179.986 360.292 182.801 360.292 182.801C360.09 183.19 359.777 183.51 359.392 183.719C359.007 183.929 358.569 184.018 358.133 183.976C356.438 183.976 351.948 176.452 354.69 164.793Z" fill="#071F5D"/>
<path opacity="0.3" d="M354.69 164.793L366.24 151.584C366.24 151.584 364.864 154.8 367.87 159.491C370.876 164.182 372.662 163.362 372.662 163.362C372.662 163.362 365.839 173.319 364.017 176.653C362.195 179.986 360.292 182.801 360.292 182.801C360.09 183.19 359.777 183.51 359.392 183.719C359.007 183.929 358.569 184.018 358.133 183.976C356.438 183.976 351.948 176.452 354.69 164.793Z" fill="black"/>
<path d="M260.958 194.479L266.396 201.721L260.548 208.416L253.014 199.607L260.958 194.479Z" fill="#F28F8F"/>
<path d="M243.149 178.01C247.895 178.228 250.154 178.921 252.641 181.89C255.128 184.86 267.552 202.814 267.552 202.814C267.552 202.814 265.357 208.971 260.548 208.443L251.812 199.434L243.149 178.01Z" fill="#455A64"/>
<path d="M219.866 328.419C219.528 330.308 219.346 332.221 219.32 334.14C219.256 337.601 218.618 338.84 218.536 341.682C218.436 344.934 219.001 346.154 220.358 347.976C221.715 349.798 225.14 351.465 226.607 348.377C228.073 345.289 227.882 343.267 227.408 340.07C226.935 336.872 226.862 334.95 226.589 332.436C226.334 330.214 226.042 328.528 226.042 328.528L219.866 328.419Z" fill="#263238"/>
<path d="M229.713 301.192L218.281 300.982C218.455 308.616 219.666 321.314 219.866 328.464C219.866 329.813 219.866 338.931 220.34 341.709C221.105 345.872 226.042 345.307 226.307 342.82C226.571 340.334 225.988 329.676 226.006 328.574C225.96 324.019 228.11 312.013 229.24 303.77C229.294 303.323 229.659 301.538 229.713 301.192Z" fill="#FFBDA7"/>
<path d="M246.501 322.489C246.501 322.489 245.918 322.489 245.818 322.999C245.718 323.509 245.681 324.475 245.444 325.422C245.056 326.907 244.92 328.447 245.044 329.977C245.235 331.042 247.667 332.627 249.334 332.91C251.001 333.192 253.342 334.832 254.645 336.061C256.736 337.788 259.324 338.803 262.032 338.958C264.765 338.958 266.741 338.047 267.652 336.553C268.563 335.059 266.823 334.886 263.653 332.828L261.185 331.225C256.166 327.945 254.326 326.187 252.905 322.908L246.501 322.489Z" fill="#263238"/>
<path d="M252.941 320.704C252.859 318.335 254.061 300.937 254.061 300.937L244.233 302.048C246.565 315.912 246.747 320.64 246.483 322.662C246.433 322.849 246.412 323.042 246.419 323.236C246.419 325.969 249.47 327.39 251.884 329.184C252.795 329.895 255.227 332.081 258.051 333.037C259.873 333.666 263.252 333.948 263.681 332.791C260.802 330.587 256.867 327.708 254.571 325.185C253.442 323.965 253.023 323.054 252.941 320.704Z" fill="#FFBDA7"/>
<path d="M220.932 222.271C215.576 233.985 221.133 275.231 221.133 275.231C220.969 277.135 218.792 280.87 217.99 289.241C217.034 299.115 219.748 325.577 219.748 325.577C220.705 326.158 221.799 326.476 222.918 326.5C224.037 326.524 225.143 326.253 226.124 325.714C226.124 325.714 233.038 286.836 234.323 277.017C235.407 268.436 237.483 249.58 237.483 249.58L243.386 276.962C242.521 279.727 241.893 282.561 241.51 285.433C240.954 291.209 246.583 320.221 246.583 320.221C247.598 320.64 248.688 320.845 249.785 320.823C250.882 320.801 251.963 320.553 252.96 320.093C252.96 320.093 255.447 282.619 255.975 275.659C256.886 263.963 253.743 227.481 251.603 220.558L220.932 222.271Z" fill="#071F5D"/>
<path opacity="0.5" d="M220.932 222.271C215.576 233.985 221.133 275.231 221.133 275.231C220.969 277.135 218.792 280.87 217.99 289.241C217.034 299.115 219.748 325.577 219.748 325.577C220.705 326.158 221.799 326.476 222.918 326.5C224.037 326.524 225.143 326.253 226.124 325.714C226.124 325.714 233.038 286.836 234.323 277.017C235.407 268.436 237.483 249.58 237.483 249.58L243.386 276.962C242.521 279.727 241.893 282.561 241.51 285.433C240.954 291.209 246.583 320.221 246.583 320.221C247.598 320.64 248.688 320.845 249.785 320.823C250.882 320.801 251.963 320.553 252.96 320.093C252.96 320.093 255.447 282.619 255.975 275.659C256.886 263.963 253.743 227.481 251.603 220.558L220.932 222.271Z" fill="black"/>
<path opacity="0.2" d="M237.465 249.58L239.205 238.704C239.205 238.704 246.565 237.182 249.908 234.04C247.603 236.743 244.586 238.747 241.2 239.824L239.241 248.204L242.666 273.555L237.465 249.58Z" fill="black"/>
<path d="M223.683 185.898L230.97 187.793V172.371C226.944 171.324 223.683 173.647 223.683 177.563V185.898Z" fill="#071F5D"/>
<path opacity="0.6" d="M223.683 185.898L230.97 187.793V172.371C226.944 171.324 223.683 173.647 223.683 177.563V185.898Z" fill="black"/>
<path d="M238.112 174.576L235.497 174.521C227.518 174.33 221.196 167.452 221.369 159.145C221.369 150.09 228.383 142.748 237.073 142.666C245.763 142.621 252.85 149.954 252.896 158.972V159.883C252.677 168.199 246.073 174.749 238.112 174.576Z" fill="#071F5D"/>
<path opacity="0.6" d="M238.112 174.576L235.497 174.521C227.518 174.33 221.196 167.452 221.369 159.145C221.369 150.09 228.383 142.748 237.073 142.666C245.763 142.621 252.85 149.954 252.896 158.972V159.883C252.677 168.199 246.073 174.749 238.112 174.576Z" fill="black"/>
<path d="M225.897 146.447C225.833 146.182 225.716 145.934 225.552 145.717C225.388 145.5 225.181 145.32 224.945 145.186C224.708 145.053 224.446 144.97 224.176 144.942C223.905 144.915 223.632 144.943 223.373 145.026L224.075 147.758C223.93 147.574 223.75 147.419 223.546 147.303C223.31 147.169 223.048 147.087 222.778 147.061C222.508 147.034 222.235 147.065 221.978 147.151C221.72 147.237 221.483 147.376 221.283 147.559C221.082 147.742 220.923 147.965 220.814 148.214L224.366 150.3C224.551 149.944 224.633 149.543 224.603 149.143C225.112 148.93 225.524 148.538 225.763 148.041C226.001 147.544 226.049 146.977 225.897 146.447Z" fill="#071F5D"/>
<path opacity="0.6" d="M225.897 146.447C225.833 146.182 225.716 145.934 225.552 145.717C225.388 145.5 225.181 145.32 224.945 145.186C224.708 145.053 224.446 144.97 224.176 144.942C223.905 144.915 223.632 144.943 223.373 145.026L224.075 147.758C223.93 147.574 223.75 147.419 223.546 147.303C223.31 147.169 223.048 147.087 222.778 147.061C222.508 147.034 222.235 147.065 221.978 147.151C221.72 147.237 221.483 147.376 221.283 147.559C221.082 147.742 220.923 147.965 220.814 148.214L224.366 150.3C224.551 149.944 224.633 149.543 224.603 149.143C225.112 148.93 225.524 148.538 225.763 148.041C226.001 147.544 226.049 146.977 225.897 146.447Z" fill="black"/>
<path d="M230.205 178.638C227.752 178.971 225.319 179.439 222.918 180.041C225.742 186.964 221.315 197.658 221.315 197.658L225.496 210.529C222.608 216.441 220.231 219.374 219.247 224.193C221.907 229.385 240.68 234.34 252.905 224.876C252.905 224.876 252.513 211.732 250.956 204.071C254.954 196.264 254.308 193.969 253.488 191.245C251.584 184.914 247.74 182.482 243.158 178.019L240.425 177.727L230.205 178.638Z" fill="#37474F"/>
<path d="M225.961 215.685C228.229 213.362 233.038 212.697 233.038 212.697L228.62 210.183L223.683 198.259C225.755 194.201 226.779 189.688 226.662 185.133L223.82 184.45C224.166 190.762 221.306 197.667 221.306 197.667L225.487 210.538C222.599 216.45 220.222 219.383 219.238 224.202C221.06 227.754 230.433 231.198 240.089 229.977C227.154 229.103 223.783 217.935 225.961 215.685Z" fill="#263238"/>
<path d="M239.032 230.077L239.56 230.023C239.383 230.026 239.206 230.044 239.032 230.077Z" fill="#E6E6E6"/>
<path d="M247.029 150.737C248.596 152.176 250.555 155.292 250.4 164.401C250.263 172.144 247.868 174.066 246.656 174.621C245.445 175.177 243.122 174.858 240.854 174.475V177.682C240.854 177.682 243.841 180.998 243.659 183.147C243.477 185.297 239.396 186.162 236.454 184.058C234.381 182.488 232.541 180.633 230.988 178.547V168.81C230.988 168.81 229.658 170.167 227.345 168.126C225.523 166.432 224.831 163.572 226.279 162.023C226.651 161.657 227.107 161.387 227.607 161.238C228.108 161.089 228.637 161.065 229.149 161.168C229.661 161.272 230.14 161.499 230.543 161.831C230.946 162.163 231.262 162.589 231.462 163.071C234.934 162.708 238.314 161.733 241.446 160.192C243.207 159.345 244.678 157.995 245.672 156.312C246.665 154.629 247.138 152.689 247.029 150.737Z" fill="#FFBDA7"/>
<path d="M240.845 162.661C240.844 162.838 240.792 163.011 240.695 163.159C240.597 163.306 240.459 163.423 240.297 163.493C240.135 163.564 239.955 163.586 239.781 163.556C239.607 163.526 239.445 163.447 239.315 163.326C239.185 163.206 239.093 163.051 239.05 162.879C239.007 162.707 239.015 162.527 239.073 162.36C239.131 162.193 239.236 162.046 239.376 161.938C239.516 161.829 239.684 161.764 239.861 161.75C240.111 161.745 240.353 161.837 240.537 162.007C240.72 162.177 240.83 162.411 240.845 162.661Z" fill="#263238"/>
<path d="M241.2 169.11L243.632 169.903C243.593 170.069 243.521 170.225 243.419 170.362C243.317 170.499 243.189 170.614 243.041 170.699C242.893 170.785 242.73 170.839 242.56 170.858C242.391 170.878 242.219 170.863 242.056 170.813C241.725 170.69 241.453 170.445 241.294 170.13C241.135 169.814 241.102 169.45 241.2 169.11Z" fill="#F79776"/>
<path d="M249.644 159.172L247.43 158.416C247.465 158.268 247.531 158.13 247.623 158.009C247.715 157.888 247.831 157.788 247.964 157.715C248.097 157.642 248.244 157.598 248.395 157.585C248.547 157.572 248.699 157.592 248.842 157.642C249.141 157.753 249.388 157.971 249.536 158.253C249.684 158.536 249.722 158.863 249.644 159.172Z" fill="#263238"/>
<path d="M231.471 162.205V165.476C231.681 165.484 231.89 165.45 232.086 165.375C232.282 165.3 232.461 165.185 232.611 165.038C232.761 164.892 232.88 164.716 232.96 164.521C233.039 164.327 233.078 164.119 233.074 163.909C233.077 163.473 232.912 163.053 232.614 162.736C232.315 162.419 231.906 162.229 231.471 162.205Z" fill="#071F5D"/>
<path opacity="0.6" d="M231.471 162.205V165.476C231.681 165.484 231.89 165.45 232.086 165.375C232.282 165.3 232.461 165.185 232.611 165.038C232.761 164.892 232.88 164.716 232.96 164.521C233.039 164.327 233.078 164.119 233.074 163.909C233.077 163.473 232.912 163.053 232.614 162.736C232.315 162.419 231.906 162.229 231.471 162.205Z" fill="black"/>
<path d="M248.842 162.342C248.863 162.604 248.778 162.864 248.607 163.063C248.437 163.263 248.194 163.387 247.932 163.408C247.731 163.428 247.529 163.387 247.352 163.291C247.174 163.195 247.03 163.048 246.937 162.869C246.843 162.69 246.806 162.488 246.829 162.287C246.851 162.087 246.934 161.898 247.065 161.745C247.196 161.592 247.369 161.481 247.564 161.427C247.758 161.373 247.964 161.379 248.155 161.443C248.346 161.508 248.514 161.627 248.636 161.788C248.759 161.948 248.831 162.141 248.842 162.342Z" fill="#263238"/>
<path d="M243.65 161.021L243.632 167.361L246.583 166.387L243.65 161.021Z" fill="#F79776"/>
<path d="M240.853 174.512C238.458 174.202 233.566 172.754 232.755 170.732C233.064 171.746 233.67 172.644 234.495 173.309C235.971 174.612 240.872 176.042 240.872 176.042L240.853 174.512Z" fill="#F79776"/>
<path d="M211.705 211.012C211.705 211.012 217.553 219.319 218.555 220.403C219.557 221.487 220.249 221.123 221.333 220.64C222.655 220.106 224.012 219.665 225.395 219.319C227.217 218.873 227.563 220.522 225.796 221.697C224.521 222.553 223.064 222.917 223.665 223.619C224.911 224.747 226.357 225.634 227.928 226.233C232.246 227.937 231.908 228.793 231.116 230.187C230.424 231.407 228.383 234.031 220.695 230.933C217.507 229.649 213.025 226.015 210.912 223.646C207.86 220.267 203.096 214.209 203.096 214.209L211.705 211.012Z" fill="#FFBDA7"/>
<path d="M224.038 179.74C221.925 179.877 217.944 180.387 212.952 188.676C208.571 195.964 201.785 205.811 200.528 209.336C200.018 210.766 202.003 213.726 204.563 216.76C208.052 216.605 211.231 214.191 212.88 212.26C212.447 211.233 211.91 210.253 211.276 209.336L221.515 197.658C221.515 197.658 225.405 194.096 226.215 189.46C227.09 184.432 226.816 180.478 224.038 179.74Z" fill="#455A64"/>
<path d="M281.361 195.463L256.12 202.113L249.17 230.67L273.172 223.701L281.361 195.463Z" fill="#071F5D"/>
<path opacity="0.25" d="M281.361 195.463L256.12 202.113L249.17 230.67L273.172 223.701L281.361 195.463Z" fill="black"/>
<g opacity="0.1">
<path d="M269.957 215.685C270.38 216.567 271.052 217.305 271.891 217.807C272.731 218.309 273.699 218.553 274.676 218.509L274.858 217.88L269.957 215.685Z" fill="black"/>
</g>
<g opacity="0.1">
<path d="M273.756 199.999L273.965 199.034C274.083 198.505 272.599 198.478 270.658 199.034L266.933 199.944C264.993 200.455 263.289 201.293 263.207 201.821L263.007 202.786L273.756 199.999Z" fill="black"/>
</g>
<path d="M275.696 196.383C275.769 196.046 275.168 195.955 274.357 196.182L272.881 196.592C272.881 196.592 273.318 194.506 270.057 195.235C269.182 195.364 268.355 195.717 267.656 196.259C266.957 196.802 266.41 197.516 266.068 198.332L264.501 198.778C263.59 199.024 262.843 199.489 262.743 199.817L262.552 200.418L275.559 196.993L275.696 196.383Z" fill="#37474F"/>
<path d="M273.901 197.403C272.717 197.694 272.216 197.849 272.08 198.669C271.943 199.489 271.788 200.291 271.788 200.291L266.04 201.812C266.04 201.812 266.323 200.628 266.414 200.172C266.505 199.717 266.304 199.425 265.384 199.671L265.312 199.307L274.33 197.002L273.901 197.403Z" fill="#37474F"/>
<path d="M274.102 200.081L274.311 199.115C274.429 198.587 272.945 198.56 271.004 199.115L267.279 200.026C265.339 200.536 263.635 201.374 263.553 201.903L263.353 202.868L274.102 200.081Z" fill="#37474F"/>
<path d="M278.702 204.636C278.702 204.636 277.791 207.869 277.545 208.635C277.299 209.4 274.493 210.793 272.644 211.304C270.795 211.814 268.755 212.415 269.638 215.011C270.44 217.407 273.501 217.953 275.049 217.88C276.598 217.807 278.738 216.332 279.604 213.936C280.669 210.875 280.096 207.614 280.515 205.829C280.934 204.044 279.631 203.57 278.702 204.636Z" fill="#FFBDA7"/>
<path d="M183.083 205.392C179.622 201.903 178.383 203.26 177.946 207.086C177.784 208.691 177.394 210.264 176.789 211.759C176.681 210.965 176.464 210.189 176.142 209.454C175.99 209.057 175.693 208.732 175.311 208.545C174.93 208.357 174.491 208.321 174.084 208.443C173.747 208.58 174.166 209.354 174.084 210.875C174.02 212.77 173.4 213.818 173.847 215.831C174.002 216.588 173.883 217.376 173.51 218.053C171.688 221.515 165.685 227.909 161.477 232.519L145.49 218.081C140.025 213.162 138.258 210.948 132.983 211.304C134.633 211.929 136.153 212.856 137.465 214.036C139.915 216.104 139.332 227.937 139.332 227.937C139.332 227.937 157.478 240.945 159.372 242.183C159.646 242.366 159.928 242.529 160.201 242.684C161.097 243.151 162.124 243.302 163.116 243.112C164.108 242.922 165.007 242.402 165.667 241.637C169.538 237.21 175.186 228.492 178.42 223.965C179.898 221.774 181.216 219.478 182.364 217.097C185.607 210.657 185.251 207.578 183.083 205.392Z" fill="#914F4E"/>
<path d="M133.548 211.012C134.823 210.78 136.132 210.823 137.388 211.137C138.645 211.451 139.82 212.029 140.836 212.834C143.951 215.202 157.232 227.408 157.232 227.408C157.232 227.408 157.596 233.867 150.856 237.711L134.578 226.233L133.548 211.012Z" fill="#071F5D"/>
<path opacity="0.3" d="M133.548 211.012C134.823 210.78 136.132 210.823 137.388 211.137C138.645 211.451 139.82 212.029 140.836 212.834C143.951 215.202 157.232 227.408 157.232 227.408C157.232 227.408 157.596 233.867 150.856 237.711L134.578 226.233L133.548 211.012Z" fill="black"/>
<path d="M117.835 356.721H110.94V369.018H117.835V356.721Z" fill="#914F4E"/>
<path d="M134.851 356.065L141.747 356.311L142.093 343.294L134.851 343.048V356.065Z" fill="#914F4E"/>
<path d="M109.965 250.245C109.965 257.104 110.976 312.314 110.976 312.314C110.821 314.282 109.045 317.925 109.428 325.504C109.947 335.806 110.648 362.851 110.648 362.851C111.833 363.458 113.139 363.787 114.47 363.814C115.8 363.841 117.119 363.564 118.327 363.006C118.327 363.006 124.849 325.522 126.088 315.32C127.163 306.411 128.994 276.424 128.994 276.424L132.729 311.294C131.933 315.043 131.645 318.882 131.872 322.708C132.2 327.426 134.414 352.011 134.414 352.011C135.606 352.717 136.944 353.141 138.325 353.252C139.707 353.362 141.095 353.156 142.384 352.649C142.384 352.649 146.301 315.621 146.383 311.294C146.474 306.357 144.088 250.154 144.088 250.154L109.965 250.245Z" fill="#37474F"/>
<path d="M117.835 365.466V364.446C118.5 364.746 120.03 370.822 122.763 373.436C124.94 375.504 127.91 377.891 128.666 380.195C129.422 382.5 124.53 383.912 122.499 383.538C120.14 383.101 116.041 381.37 115.02 379.767C114 378.164 113.508 375.786 112.67 374.611C111.832 373.436 109.938 372.125 109.464 370.758C109.328 369.488 109.462 368.203 109.856 366.987C110.174 365.721 110.521 364.327 110.94 364.446V365.229C111.912 366.026 113.135 366.454 114.392 366.441C115.394 366.477 117.844 366.267 117.835 365.466Z" fill="#263238"/>
<path d="M141.82 354.097C142.175 354.097 142.466 354.635 143.259 355.528C144.43 356.759 145.8 357.785 147.312 358.561C149.899 359.909 154.918 361.986 157.196 363.052C158.617 363.717 158.544 365.502 157.077 366.513C155.611 367.524 152.067 368.262 147.813 367.278C145.5 366.732 142.475 364.546 140.526 364.628C138.577 364.71 135.061 364.719 133.63 363.717C132.2 362.715 132.783 360.538 133.184 358.688C133.621 356.657 134.168 353.496 134.806 353.633V354.334C135.634 355.646 139.916 356.156 141.738 355.245L141.82 354.097Z" fill="#263238"/>
<path d="M128.994 276.443C132.583 275.271 135.863 273.31 138.595 270.704C138.595 270.704 136.773 274.347 131.235 277.681L132.41 308.825L128.994 276.443Z" fill="#263238"/>
<path d="M113.554 212.834C113.554 212.834 108.162 213.326 108.544 223.61L109.737 240.006L109.628 264.601C114.693 270.349 137.183 269.93 144.88 264.136C144.88 264.136 144.088 235.051 143.569 223.856C143.195 215.904 141.364 211.896 133.549 211.021L123.929 211.44L113.554 212.834Z" fill="#071F5D"/>
<path opacity="0.3" d="M128.885 218.226L130.123 226.862L133.011 226.807L129.75 227.317L128.885 218.226Z" fill="black"/>
<path d="M96.4378 248.141C99.2343 225.641 105.674 214.437 113.517 213.144L112.962 227.536C109.696 235.212 107.194 243.19 105.492 251.356C104.463 256.895 103.27 266.523 103.579 271.25C103.641 272.083 103.996 272.868 104.581 273.464C106.13 275.04 106.594 276.406 107.633 278.182C108.453 279.576 109.291 280.068 109.072 280.405C108.79 280.759 108.382 280.99 107.933 281.048C107.484 281.106 107.03 280.986 106.667 280.715C105.845 280.132 105.093 279.457 104.426 278.702C104.327 280.846 104.713 282.985 105.556 284.96C107.378 288.749 107.086 290.744 102.003 289.623C98.8153 288.931 96.538 285.57 95.6271 277.727C95.3874 274.8 95.3357 271.861 95.4722 268.928C95.8184 261.431 95.8821 252.641 96.4378 248.141Z" fill="#914F4E"/>
<path d="M113.964 212.77C109.892 212.77 106.175 213.471 103.215 219.146C100.382 224.612 98.205 236.171 97.1028 239.952C97.1028 239.952 103.051 243.468 108.526 243.377L112.379 230.004C112.379 230.004 114.984 223.765 113.964 212.77Z" fill="#071F5D"/>
<path opacity="0.3" d="M113.964 212.77C109.892 212.77 106.175 213.471 103.215 219.146C100.382 224.612 98.205 236.171 97.1028 239.952C97.1028 239.952 103.051 243.468 108.526 243.377L112.379 230.004C112.379 230.004 114.984 223.765 113.964 212.77Z" fill="black"/>
<path d="M122.372 189.615C122.454 191.627 123.126 193.572 124.304 195.206C125.482 196.839 127.115 198.091 128.998 198.805C130.882 199.518 132.934 199.662 134.899 199.219C136.864 198.776 138.656 197.765 140.051 196.311C141.446 194.858 142.383 193.027 142.745 191.046C143.108 189.064 142.88 187.02 142.09 185.167C141.3 183.314 139.983 181.734 138.303 180.623C136.622 179.513 134.652 178.921 132.638 178.921C129.859 178.981 127.218 180.14 125.293 182.145C123.369 184.15 122.318 186.836 122.372 189.615Z" fill="#263238"/>
<path d="M115.84 194.962C115.84 194.962 117.416 202.668 118.045 203.934C118.455 204.709 119.151 205.294 119.985 205.565L119.867 200.099L115.84 194.962Z" fill="#263238"/>
<path d="M117.817 183.922C117.817 183.922 116.651 183.685 115.485 185.507C114.456 187.11 114.228 190.717 115.84 194.953L118.801 195.308L117.817 183.922Z" fill="#263238"/>
<path d="M119.693 195.317C119.101 195.69 118.254 194.497 117.516 193.705C116.779 192.912 114.392 191.81 113.199 194.433C112.005 197.057 114.246 200.637 116.132 201.247C119.384 202.313 119.867 200.136 119.867 200.136L120.122 212.351C124.43 219.019 134.204 218.782 130.688 212.023V208.279C132.135 208.52 133.605 208.599 135.07 208.516C137.456 208.134 138.959 206.166 139.688 203.47C140.854 199.143 141.291 195.654 140.307 187.146C139.223 177.818 128.812 177.718 123.182 181.407C117.553 185.097 119.693 195.317 119.693 195.317Z" fill="#914F4E"/>
<path d="M120.067 209.609C121.069 211.66 122.509 213.467 124.285 214.901C125.795 216.015 127.545 216.761 129.395 217.079C127.87 218.111 126.62 219.499 125.751 221.123C124.676 223.5 117.079 216.969 117.152 212.333C117.152 212.333 118.345 207.678 119.976 207.377L120.067 209.609Z" fill="#263238"/>
<path d="M129.404 217.079C129.404 217.079 131.745 215.913 130.697 212.023V208.279L131.727 208.416C132.926 209.585 133.778 211.064 134.186 212.688C134.423 213.754 135.006 219.146 133.977 220.212C132.947 221.278 131.499 217.388 129.404 217.079Z" fill="#263238"/>
<path d="M119.693 196.364C119.393 196.364 118.254 194.406 117.516 193.705C116.487 192.73 117.817 183.921 117.817 183.921C117.549 183.161 117.499 182.341 117.672 181.554C117.846 180.767 118.237 180.044 118.801 179.467C120.213 177.855 122.563 177.645 126.571 177.026C128.171 176.829 129.759 176.54 131.326 176.161C132.98 175.541 134.572 174.767 136.081 173.847C136.555 173.539 137.123 173.41 137.684 173.482C137.942 173.57 138.174 173.723 138.354 173.928C138.535 174.132 138.659 174.381 138.713 174.648C138.804 175.182 138.804 175.727 138.713 176.261C139.22 175.789 139.892 175.538 140.584 175.562C141.276 175.586 141.929 175.883 142.402 176.388C142.85 176.921 143.141 177.567 143.244 178.255C143.347 178.943 143.257 179.647 142.985 180.287C142.403 181.561 141.451 182.631 140.253 183.357C135.215 186.764 129.267 185.816 123.619 185.179C123.352 185.119 123.074 185.138 122.818 185.233C121.907 185.634 121.743 188.376 121.588 189.168C121.133 191.81 120.695 196.346 119.693 196.364Z" fill="#263238"/>
<path d="M117.817 184.386L114.228 182.373C114.337 182.124 114.497 181.901 114.697 181.718C114.898 181.535 115.134 181.396 115.392 181.31C115.65 181.225 115.922 181.194 116.192 181.22C116.463 181.246 116.724 181.329 116.961 181.462C117.438 181.759 117.789 182.222 117.947 182.761C118.105 183.3 118.059 183.879 117.817 184.386Z" fill="#263238"/>
<path d="M130.679 208.279C130.679 208.279 125.35 207.159 123.483 206.13C122.375 205.524 121.476 204.596 120.905 203.47C121.183 204.601 121.681 205.665 122.372 206.603C123.729 208.425 130.679 209.764 130.679 209.764V208.279Z" fill="#783736"/>
<path d="M128.748 193.614C128.754 193.76 128.731 193.905 128.681 194.042C128.631 194.18 128.554 194.306 128.455 194.413C128.356 194.52 128.237 194.607 128.104 194.669C127.972 194.73 127.828 194.765 127.682 194.77C127.387 194.754 127.111 194.623 126.912 194.405C126.712 194.187 126.606 193.9 126.616 193.604C126.616 193.322 126.729 193.051 126.929 192.851C127.128 192.651 127.399 192.539 127.682 192.539C127.965 192.539 128.236 192.651 128.436 192.851C128.636 193.051 128.748 193.322 128.748 193.604V193.614Z" fill="#263238"/>
<path d="M126.917 188.986L124.631 190.298C124.466 189.973 124.429 189.599 124.527 189.248C124.625 188.897 124.85 188.596 125.159 188.403C125.311 188.319 125.479 188.266 125.653 188.25C125.826 188.234 126.001 188.254 126.166 188.308C126.331 188.363 126.483 188.452 126.613 188.568C126.742 188.685 126.846 188.827 126.917 188.986Z" fill="#263238"/>
<path d="M130.196 201.621L132.638 202.577C132.59 202.745 132.507 202.901 132.396 203.035C132.285 203.169 132.147 203.279 131.992 203.358C131.836 203.437 131.666 203.482 131.492 203.492C131.318 203.502 131.143 203.476 130.98 203.415C130.647 203.27 130.381 203.004 130.236 202.672C130.091 202.339 130.077 201.963 130.196 201.621Z" fill="#783736"/>
<path d="M139.424 190.262L137.019 189.096C137.078 188.933 137.171 188.784 137.291 188.659C137.411 188.535 137.557 188.437 137.718 188.372C137.879 188.308 138.051 188.278 138.224 188.285C138.398 188.292 138.567 188.335 138.722 188.412C139.048 188.579 139.299 188.861 139.429 189.202C139.558 189.544 139.557 189.921 139.424 190.262Z" fill="#263238"/>
<path d="M137.848 193.614C137.862 193.763 137.844 193.913 137.797 194.054C137.749 194.196 137.672 194.326 137.572 194.437C137.471 194.547 137.348 194.635 137.212 194.696C137.075 194.756 136.927 194.787 136.778 194.787C136.628 194.787 136.48 194.756 136.343 194.696C136.207 194.635 136.084 194.547 135.983 194.437C135.883 194.326 135.806 194.196 135.758 194.054C135.711 193.913 135.693 193.763 135.707 193.614C135.701 193.468 135.724 193.323 135.774 193.186C135.825 193.05 135.902 192.924 136.001 192.818C136.1 192.711 136.219 192.625 136.352 192.564C136.484 192.504 136.627 192.471 136.773 192.466C137.067 192.478 137.344 192.605 137.546 192.82C137.747 193.034 137.855 193.32 137.848 193.614Z" fill="#263238"/>
<path d="M131.79 192.785L131.908 199.534L135.743 198.66L131.79 192.785Z" fill="#783736"/>
<path d="M127.099 190.826C126.391 190.826 125.712 191.107 125.212 191.608C124.711 192.109 124.43 192.787 124.43 193.495C124.43 194.203 124.711 194.882 125.212 195.382C125.712 195.883 126.391 196.164 127.099 196.164H127.582C128.29 196.164 128.969 195.883 129.469 195.382C129.97 194.882 130.251 194.203 130.251 193.495C130.251 192.787 129.97 192.109 129.469 191.608C128.969 191.107 128.29 190.826 127.582 190.826H127.099ZM123.938 193.495C123.931 192.651 124.259 191.839 124.85 191.236C125.44 190.633 126.246 190.289 127.09 190.28H127.582C128.356 190.381 129.066 190.761 129.581 191.347C130.095 191.934 130.379 192.688 130.379 193.468C130.379 194.248 130.095 195.002 129.581 195.589C129.066 196.175 128.356 196.555 127.582 196.656H127.099C126.262 196.651 125.461 196.317 124.869 195.725C124.278 195.133 123.943 194.332 123.938 193.495Z" fill="#263238"/>
<path d="M136.691 190.826C135.984 190.826 135.305 191.107 134.804 191.608C134.304 192.109 134.022 192.787 134.022 193.495C134.022 194.203 134.304 194.882 134.804 195.382C135.305 195.883 135.984 196.164 136.691 196.164H137.174C137.882 196.164 138.561 195.883 139.061 195.382C139.562 194.882 139.843 194.203 139.843 193.495C139.843 192.787 139.562 192.109 139.061 191.608C138.561 191.107 137.882 190.826 137.174 190.826H136.691ZM133.54 193.495C133.532 192.651 133.86 191.839 134.451 191.236C135.042 190.633 135.847 190.289 136.691 190.28H137.174C137.948 190.381 138.658 190.761 139.173 191.347C139.688 191.934 139.971 192.688 139.971 193.468C139.971 194.248 139.688 195.002 139.173 195.589C138.658 196.175 137.948 196.555 137.174 196.656H136.691C135.859 196.644 135.065 196.306 134.479 195.716C133.893 195.125 133.563 194.327 133.558 193.495H133.54Z" fill="#263238"/>
<path d="M130.697 192.857C130.888 192.593 131.138 192.377 131.428 192.227C131.717 192.076 132.038 191.996 132.364 191.992C132.633 191.963 132.905 191.999 133.157 192.097C133.409 192.196 133.634 192.353 133.812 192.557L134.241 192.229C134.013 191.951 133.72 191.735 133.387 191.6C133.055 191.464 132.694 191.414 132.337 191.455C131.923 191.459 131.517 191.563 131.152 191.758C130.787 191.953 130.475 192.233 130.242 192.575L130.697 192.857Z" fill="#263238"/>
<path d="M124.23 192.83H118.801V193.368H124.23V192.83Z" fill="#263238"/>
</svg>
