<svg width="528" height="394" viewBox="0 0 528 394" fill="none" xmlns="http://www.w3.org/2000/svg">
<path d="M453.076 211.626C440.435 211.626 430.186 201.378 430.186 188.737C430.186 176.109 440.435 165.861 453.076 165.861C465.704 165.861 475.952 176.109 475.952 188.737C475.952 201.378 465.704 211.626 453.076 211.626ZM513.347 201.949V175.538H503.331C502.129 170.92 500.296 166.566 497.947 162.556L505.027 155.463L486.351 136.785L479.258 143.867C475.247 141.517 470.894 139.684 466.275 138.481V128.467H439.863V138.481C435.246 139.684 430.891 141.517 426.881 143.867L419.788 136.785L401.111 155.463L408.192 162.556C405.843 166.566 404.021 170.92 402.806 175.538H392.792V201.949H402.806C404.021 206.568 405.843 210.922 408.192 214.932L401.111 222.025L419.788 240.703L426.881 233.621C430.891 235.97 435.246 237.792 439.863 239.007V249.021H466.275V239.007C470.894 237.792 475.247 235.97 479.258 233.621L486.351 240.703L505.027 222.025L497.947 214.932C500.296 210.922 502.129 206.568 503.331 201.949H513.347Z" fill="#071F5D"/>
<path d="M405.486 284.391C399.216 286.796 392.184 283.664 389.779 277.396C387.376 271.133 390.509 264.1 396.778 261.695C403.041 259.294 410.073 262.426 412.475 268.688C414.88 274.957 411.748 281.99 405.486 284.391ZM433.534 268.126L428.509 255.028L423.542 256.933C422.068 254.871 420.329 253.061 418.402 251.52L420.564 246.655L407.748 240.945L405.578 245.806C403.141 245.405 400.633 245.324 398.114 245.606L396.21 240.64L383.11 245.664L385.016 250.631C382.955 252.106 381.144 253.843 379.602 255.772L374.737 253.609L369.029 266.425L373.89 268.596C373.488 271.031 373.413 273.537 373.689 276.059L368.722 277.964L373.747 291.062L378.714 289.157C380.195 291.216 381.927 293.029 383.855 294.57L381.692 299.435L394.509 305.145L396.679 300.284C399.114 300.685 401.621 300.76 404.141 300.484L406.047 305.45L419.145 300.426L417.241 295.459C419.299 293.978 421.112 292.247 422.654 290.318L427.519 292.481L433.227 279.665L428.366 277.494C428.769 275.058 428.849 272.55 428.568 270.031L433.534 268.126Z" stroke="#AFC5FF" stroke-width="1.21223" stroke-miterlimit="10"/>
<path d="M371.667 233.172C367.432 234.798 362.68 232.68 361.054 228.445C359.431 224.213 361.547 219.462 365.784 217.836C370.015 216.213 374.767 218.33 376.39 222.562C378.016 226.797 375.898 231.549 371.667 233.172ZM390.619 222.181L387.224 213.332L383.868 214.619C382.87 213.226 381.697 212.003 380.394 210.961L381.856 207.673L373.196 203.816L371.729 207.101C370.084 206.829 368.389 206.775 366.687 206.965L365.4 203.61L356.549 207.004L357.837 210.361C356.444 211.357 355.221 212.532 354.178 213.834L350.891 212.373L347.033 221.033L350.319 222.499C350.047 224.145 349.996 225.838 350.183 227.541L346.827 228.829L350.222 237.679L353.578 236.392C354.578 237.784 355.749 239.008 357.051 240.049L355.591 243.337L364.251 247.194L365.716 243.91C367.362 244.182 369.056 244.233 370.759 244.046L372.047 247.401L380.897 244.006L379.61 240.65C381.001 239.649 382.226 238.479 383.268 237.176L386.554 238.638L390.412 229.978L387.128 228.511C387.399 226.866 387.454 225.172 387.264 223.468L390.619 222.181Z" stroke="#AFC5FF" stroke-width="1.21223" stroke-miterlimit="10"/>
<path d="M387.538 67.2248C387.538 80.4963 381.335 92.3264 371.684 99.9707C364.579 105.61 355.593 108.956 345.806 108.956C336.044 108.956 327.059 105.61 319.927 99.9707C310.266 92.3264 304.075 80.4963 304.075 67.2248C304.075 44.178 322.76 25.4928 345.806 25.4928C368.852 25.4928 387.538 44.178 387.538 67.2248Z" fill="#071F5D"/>
<path d="M387.538 67.2248C387.538 80.4963 381.335 92.3264 371.684 99.9707C364.579 105.61 355.593 108.956 345.806 108.956C336.044 108.956 327.059 105.61 319.927 99.9707C310.266 92.3264 304.075 80.4963 304.075 67.2248C304.075 44.178 322.76 25.4928 345.806 25.4928C368.852 25.4928 387.538 44.178 387.538 67.2248Z" stroke="#4497D8" stroke-width="1.21223" stroke-miterlimit="10"/>
<path d="M345.805 39.8295C353.35 39.8295 359.466 45.9452 359.466 53.4889C359.466 61.0325 353.35 67.1494 345.805 67.1494C338.262 67.1494 332.146 61.0325 332.146 53.4889C332.146 45.9452 338.262 39.8295 345.805 39.8295Z" fill="white"/>
<path d="M371.684 94.7069C364.579 100.346 355.593 103.692 345.805 103.692C336.043 103.692 327.058 100.346 319.927 94.7069C322.596 82.9641 325.052 72.8262 327.608 70.2563C331.218 66.6475 340.805 64.5419 345.793 64.5419C350.78 64.5419 360.818 67.0984 362.673 68.9531C366.458 72.7256 369.716 83.1398 371.684 94.7069Z" fill="white"/>
<path d="M285.83 170.099V149.491C285.83 143.867 290.388 139.309 296.013 139.309H360.94C366.565 139.309 371.122 143.867 371.122 149.491V170.099C371.122 175.724 366.565 180.282 360.94 180.282H296.025C290.4 180.294 285.83 175.724 285.83 170.099Z" fill="#071F5D"/>
<path d="M313.251 169.02L281.83 199.629L332.756 173.893" fill="#071F5D"/>
<path d="M293.71 148.982V148.873C293.71 148.036 294.389 147.358 295.225 147.358H327.325C328.161 147.358 328.84 148.036 328.84 148.873V148.982C328.84 149.818 328.161 150.497 327.325 150.497H295.225C294.389 150.497 293.71 149.818 293.71 148.982Z" fill="white"/>
<path d="M330.283 148.982V148.873C330.283 148.036 330.962 147.358 331.798 147.358H359.813C360.649 147.358 361.328 148.036 361.328 148.873V148.982C361.328 149.818 360.649 150.497 359.813 150.497H331.798C330.962 150.497 330.283 149.818 330.283 148.982Z" fill="white"/>
<path d="M318.051 155.88V155.771C318.051 154.935 318.73 154.256 319.567 154.256H359.812C360.649 154.256 361.328 154.935 361.328 155.771V155.88C361.328 156.717 360.649 157.395 359.812 157.395H319.567C318.73 157.395 318.051 156.717 318.051 155.88Z" fill="white"/>
<path d="M293.71 155.88V155.771C293.71 154.935 294.389 154.256 295.225 154.256H313.203C314.039 154.256 314.718 154.935 314.718 155.771V155.88C314.718 156.717 314.039 157.395 313.203 157.395H295.225C294.389 157.395 293.71 156.717 293.71 155.88Z" fill="white"/>
<path d="M323.64 162.777V162.668C323.64 161.832 324.318 161.153 325.155 161.153H359.812C360.649 161.153 361.328 161.832 361.328 162.668V162.777C361.328 163.614 360.649 164.293 359.812 164.293H325.155C324.318 164.293 323.64 163.614 323.64 162.777Z" fill="white"/>
<path d="M293.71 162.777V162.668C293.71 161.832 294.389 161.153 295.225 161.153H319.167C320.003 161.153 320.682 161.832 320.682 162.668V162.777C320.682 163.614 320.003 164.293 319.167 164.293H295.225C294.389 164.293 293.71 163.614 293.71 162.777Z" fill="white"/>
<path d="M293.71 169.675V169.566C293.71 168.729 294.389 168.051 295.225 168.051H304.111C304.947 168.051 305.626 168.729 305.626 169.566V169.675C305.626 170.511 304.947 171.19 304.111 171.19H295.225C294.389 171.19 293.71 170.511 293.71 169.675Z" fill="white"/>
<path d="M308.766 169.675V169.566C308.766 168.729 309.444 168.051 310.281 168.051H359.812C360.649 168.051 361.328 168.729 361.328 169.566V169.675C361.328 170.511 360.649 171.19 359.812 171.19H310.281C309.444 171.19 308.766 170.511 308.766 169.675Z" fill="white"/>
<path d="M74.9106 86.4531C95.6421 78.5857 118.826 89.0133 126.693 109.744C134.561 130.475 124.133 153.658 103.403 161.526C82.6717 169.394 59.4879 158.966 51.6202 138.236C43.7522 117.504 54.1797 94.3204 74.9106 86.4531Z" fill="#071F5D"/>
<path d="M88.4662 147.906C86.1408 152.75 80.3283 154.791 75.4846 152.466C70.641 150.14 68.5996 144.328 70.925 139.484C73.2505 134.64 79.0625 132.599 83.9067 134.924C88.7506 137.25 90.792 143.062 88.4662 147.906Z" fill="white"/>
<path d="M74.5867 147.187L74.1169 141.017L79.2259 137.526L84.8044 140.203L85.2741 146.374L80.1653 149.866L74.5867 147.187Z" fill="#AFC5FF"/>
<path d="M107.388 108.495C105.062 113.339 99.2508 115.38 94.4067 113.054C89.5627 110.729 87.5214 104.917 89.8463 100.074C92.1726 95.2297 97.9852 93.1883 102.828 95.5133C107.672 97.8396 109.713 103.651 107.388 108.495Z" fill="white"/>
<path d="M93.7922 107.187L94.1268 99.3414L100.039 94.1737L105.617 96.8527L105.283 104.698L99.3697 109.865L93.7922 107.187Z" fill="#AFC5FF"/>
<path d="M86.4339 139.199L78.991 135.625L84.491 122.937C84.84 122.132 85.2202 121.341 85.6303 120.566L92.0915 108.339L99.5346 111.913L94.2299 124.407C93.8201 125.374 93.3655 126.321 92.8673 127.245L86.4339 139.199Z" fill="white"/>
<path d="M117.045 145.59C118.48 144.926 141.515 145.976 141.515 145.976L124.911 130.731L117.045 145.59Z" fill="#071F5D"/>
<path d="M182.255 0.974329C204.049 0.844621 221.821 18.4049 221.952 40.1983C222.083 61.9917 204.522 79.7653 182.728 79.895C160.935 80.0259 143.162 62.4657 143.031 40.6723C142.901 18.8789 160.462 1.10525 182.255 0.974329Z" fill="#071F5D"/>
<path d="M183.81 39.9464H181.174V6.80658H183.81V39.9464Z" fill="white"/>
<path d="M180.991 39.9458L182.492 42.1132L154.873 61.2312L153.372 59.0638L180.991 39.9458Z" fill="white"/>
<path d="M186.124 40.4348C186.124 42.441 184.498 44.0679 182.492 44.0679C180.485 44.0679 178.86 42.441 178.86 40.4348C178.86 38.4298 180.485 36.803 182.492 36.803C184.498 36.803 186.124 38.4298 186.124 40.4348Z" fill="white"/>
<path d="M289.625 307.638C287.285 271.563 303.068 234.226 329.652 212.867C330.477 249.124 314.851 285.818 289.625 307.638Z" fill="#0099FF"/>
<path d="M325.313 222.577C314.112 243.451 304.426 265.295 296.377 287.831C286.594 315.191 278.897 344.26 262.144 367.195" stroke="#AFC5FF" stroke-width="1.21223" stroke-miterlimit="10" stroke-linecap="round"/>
<path d="M281.236 330.331C294.692 300.232 321.397 277.49 350.842 271.053C338.308 303.311 310.111 327.919 281.236 330.331Z" fill="#0099FF"/>
<path d="M343.617 277.684C323.507 295.383 303.056 312.584 282.267 329.276" stroke="#AFC5FF" stroke-width="1.21223" stroke-miterlimit="10" stroke-linecap="round"/>
<path d="M273.296 356.551C291.273 329.701 324.44 315.687 351.884 323.349C331.701 349.86 298.462 363.91 273.296 356.551Z" fill="#0099FF"/>
<path d="M345.302 325.288C321.737 340.029 296.316 350.915 270.108 357.461" stroke="#0099FF" stroke-width="1.21223" stroke-miterlimit="10" stroke-linecap="round"/>
<path d="M283.006 321.203C288.752 290.97 280.133 257.27 260.943 234.977C253.076 264.689 260.58 299.504 283.006 321.203Z" fill="#0099FF"/>
<path d="M262.919 242.687C266.702 270.811 273.429 297.152 283.855 322.9" stroke="#AFC5FF" stroke-width="1.21223" stroke-miterlimit="10" stroke-linecap="round"/>
<path d="M273.138 346.95C270.69 315.869 254.761 286.679 231.462 270.568C232.808 287.03 237.184 302.898 244.13 317.324C252.118 333.895 263.853 344.405 273.138 346.95Z" fill="#0099FF"/>
<path d="M234.917 276.86C244.081 302.777 257.27 326.804 273.72 347.605" stroke="#AFC5FF" stroke-width="1.21223" stroke-miterlimit="10" stroke-linecap="round"/>
<path d="M453.069 339.495C465.785 306.414 495.036 279.575 527.294 271.405C513.159 304.038 484.308 330.343 453.069 339.495Z" fill="#0099FF"/>
<path d="M519.475 278.278C501.025 292.304 483.496 307.808 467.155 324.597C447.299 344.987 428.57 367.728 404.362 381.329" stroke="#AFC5FF" stroke-width="1.21223" stroke-miterlimit="10" stroke-linecap="round"/>
<path d="M436.353 356.285C460.585 334.962 493.509 325.603 522.166 331.883C497.873 355.509 462.864 365.922 436.353 356.285Z" fill="#0099FF"/>
<path d="M513.062 334.852C488.03 342.417 462.9 349.387 437.686 355.775" stroke="#AFC5FF" stroke-width="1.21223" stroke-miterlimit="10" stroke-linecap="round"/>
<path d="M418.581 376.408C445.48 359.825 480.538 360.879 501.655 378.905C472.949 394.276 437.807 393.222 418.581 376.408Z" fill="#0099FF"/>
<path d="M495.048 377.935C468.185 381.451 441.238 380.772 415.405 375.911" stroke="#AFC5FF" stroke-width="1.21223" stroke-miterlimit="10" stroke-linecap="round"/>
<path d="M441.662 348.878C459.13 324.294 465.325 290.752 457.506 263.065C438.365 286.315 430.728 320.391 441.662 348.878Z" fill="#0099FF"/>
<path d="M456.088 270.726C447.893 297.322 443.056 323.53 441.723 350.733" stroke="#AFC5FF" stroke-width="1.21223" stroke-miterlimit="10" stroke-linecap="round"/>
<path d="M422.388 367.789C432.958 339.107 430.849 306.596 416.86 282.739C411.308 297.952 408.665 313.869 408.896 329.555C409.15 347.569 415.211 361.728 422.388 367.789Z" fill="#A9CAED"/>
<path d="M417.321 289.746C414.799 316.572 416.605 343.363 422.618 368.601" stroke="#AFC5FF" stroke-width="1.21223" stroke-miterlimit="10" stroke-linecap="round"/>
<path d="M92.6707 281.655C79.7072 242.004 43.5309 209.966 1.44629 200.874C19.1391 235.177 51.2313 262.478 92.6707 281.655Z" fill="#0099FF"/>
<path d="M94.8662 287.806C66.4704 271.748 30.8916 268.208 0.0480957 278.358C28.6552 292.648 62.552 296.629 94.8662 287.806Z" fill="#0099FF"/>
<path d="M102.72 296.404C72.0301 292.152 39.892 299.716 14.968 317.057C43.2298 327.331 77.1376 320.668 102.72 296.404Z" fill="#0099FF"/>
<path d="M112.289 315.188C81.8979 315.061 52.0161 329.506 34.1523 352.957C47.6781 355.668 62.041 354.048 74.4497 348.428C86.859 342.809 97.2555 333.22 112.289 315.188Z" fill="#0099FF"/>
<path d="M133.715 346.615C103.748 341.477 71.8182 350.764 50.2095 370.904C63.1068 375.803 77.5484 376.586 90.7445 373.107C103.941 369.626 115.822 361.898 133.715 346.615Z" fill="#0099FF"/>
<path d="M101.362 283.534C81.5739 256.862 76.2027 220.919 87.4456 190.342C96.031 204.88 103.438 220.251 106.896 236.59C110.353 252.928 109.682 270.348 101.362 283.534Z" fill="#0099FF"/>
<path d="M113.452 309.268C108.765 280.931 118.455 250.895 138.921 230.372C141.276 259.69 132.306 289.557 113.452 309.268Z" fill="#A9CAED"/>
<path d="M10.6589 207.98C70.8876 246.515 117.989 303.954 142.853 369.213" stroke="#AFC5FF" stroke-width="1.21223" stroke-miterlimit="10" stroke-linecap="round"/>
<path d="M89.3167 204.403C96.6421 234.15 101.099 264.519 102.607 294.979" stroke="#AFC5FF" stroke-width="1.21223" stroke-miterlimit="10" stroke-linecap="round"/>
<path d="M134.421 241.879C132.022 265.878 124.604 289.335 112.756 310.463" stroke="#0099FF" stroke-width="1.21223" stroke-miterlimit="10" stroke-linecap="round"/>
<path d="M12.7263 279.05C40.3385 284.301 68.4034 287.148 96.4736 287.565" stroke="#AFC5FF" stroke-width="1.21223" stroke-miterlimit="10" stroke-linecap="round"/>
<path d="M29.365 314.699C54.8256 312.851 79.8737 306.682 103.027 296.551" stroke="#AFC5FF" stroke-width="1.21223" stroke-miterlimit="10" stroke-linecap="round"/>
<path d="M44.6187 348.677C68.1117 336.958 91.6066 325.226 115.101 313.506" stroke="#AFC5FF" stroke-width="1.21223" stroke-miterlimit="10" stroke-linecap="round"/>
<path d="M59.8982 369.371C90.5711 363.453 99.6846 356.391 133.729 346.618" stroke="#AFC5FF" stroke-width="1.21223" stroke-miterlimit="10" stroke-linecap="round"/>
<path d="M254.082 313.19C254.082 313.19 256.737 337.52 259.707 339.471C265.017 342.975 326.476 351.072 326.476 351.072L324.464 367.062C324.464 367.062 240.287 374.626 236.711 370.419C230.505 363.122 219.594 327.919 219.594 327.919L254.082 313.19Z" fill="#E1534D"/>
<path d="M213.497 250.555L220.298 234.226C220.298 234.226 238.748 242.893 244.833 253.597C251.343 265.041 259.307 325.882 259.307 325.882C259.307 325.882 226.735 333.386 220.746 330.198C214.758 327.01 213.497 250.555 213.497 250.555Z" fill="#DB2338"/>
<path d="M161.699 174.766C156.935 173.02 151.892 171.493 146.788 171.881C141.685 172.269 136.472 174.972 134.739 179.457C133.502 182.633 134.072 186.379 132.12 189.24C130.253 191.98 126.544 193.119 123.077 193.349C119.598 193.592 116.095 193.131 112.64 193.58C101.972 194.998 94.3594 206.587 97.8628 216.079C99.2568 219.861 102.118 223.473 101.463 227.413C100.772 231.631 96.3475 234.407 94.5291 238.323C92.1168 243.536 95.0019 249.851 99.766 253.403C104.53 256.943 110.724 258.288 116.737 259.185C125.017 260.422 133.563 261.004 141.745 259.258C149.928 257.512 157.747 253.197 161.977 246.457C163.856 243.475 164.996 240.105 167.178 237.305C171.687 231.522 179.676 229.28 185.967 225.182C192.841 220.685 197.883 211.933 193.835 205.084C189.931 198.501 179.773 197.035 175.7 190.549C174.015 187.87 173.615 184.682 172.524 181.761C171.408 178.827 168.742 177.348 161.699 174.766Z" fill="#16233A"/>
<path d="M189.459 255.513C190.659 256.895 192.077 258.41 194.041 258.543C196.114 258.689 197.847 257.222 199.181 255.804C206.066 248.518 210.612 239.572 212.455 230.347C210.745 229.377 209.097 228.444 207.606 227.571C206.224 226.746 205.181 225.595 204.587 224.249C204.175 223.255 204.03 222.213 204.139 221.122C205.108 212.006 205.969 206.927 209.169 197.677C193.968 194.247 179.628 190.174 171.384 183.288C170.378 187.531 169.19 195.835 166.657 204.066C163.953 212.782 159.735 221.401 152.583 225.11C166.62 233.402 179.143 243.705 189.459 255.513Z" fill="#F7906C"/>
<path d="M204.139 221.134C204.029 222.225 204.175 223.279 204.587 224.261C195.592 235.171 175.481 220.916 166.656 204.078C169.19 195.847 170.378 187.543 171.384 183.3C179.615 190.186 193.968 194.271 209.169 197.689C205.969 206.939 205.108 212.006 204.139 221.134Z" fill="#E1534D"/>
<path d="M229.183 353.024C227.195 366.188 241.403 380.359 241.754 387.39C211.582 387.39 148.376 389.233 116.192 384.857C114.725 376.735 130.617 358.467 130.617 340.429C130.617 338.041 130.52 335.422 130.326 332.61C129.817 324.561 128.629 314.984 127.308 305.165C123.72 278.823 118.944 250.651 122.471 244.808C129.381 233.426 145.54 225.692 153.553 222.37C156.304 221.231 158.098 220.612 158.232 220.54C168.281 237.68 188.731 252.3 196.453 251.645C198.599 251.476 204.963 249.257 209.17 228.08C210.806 229.013 212.443 229.874 214.067 230.71C222.055 234.868 229.547 238.299 231.705 243.645C237.402 257.719 242.991 293.2 241.754 305.821C240.506 318.549 235.39 328.27 231.802 341.047C230.965 344.041 230.202 347.217 229.583 350.637C229.426 351.399 229.305 352.199 229.183 353.024Z" fill="#F8344A"/>
<path d="M241.754 387.39C211.582 387.39 148.376 389.233 116.192 384.857C114.725 376.735 130.617 358.467 130.617 340.429C130.617 338.041 130.52 335.422 130.326 332.61C129.817 324.561 128.629 314.984 127.308 305.165C133.018 311.19 141.346 285.733 145.031 293.188C164.972 333.434 180.694 344.017 208.018 344.017C216.164 344.017 223.68 342.889 231.802 341.047C230.965 344.041 230.202 347.217 229.583 350.636C229.438 351.411 229.305 352.211 229.183 353.036C227.195 366.176 241.403 380.347 241.754 387.39Z" fill="#F8344A"/>
<path d="M214.067 230.71C212.77 240.129 208.927 252.821 197.75 256.167C182.646 260.688 160.789 232.468 153.552 222.37C156.304 221.231 158.098 220.612 158.232 220.54C168.281 237.68 188.731 252.3 196.453 251.645C198.599 251.476 204.963 249.257 209.169 228.08C210.806 229.001 212.442 229.862 214.067 230.71Z" fill="#DB2338"/>
<path d="M220.273 373.22L220.164 383.73L408.059 384.845L408.447 372.929L220.273 373.22Z" fill="#345A73"/>
<path d="M489.496 279.454L485.314 275.211L348.454 274.314L279.793 373.608L283.382 376.493L489.496 279.454Z" fill="#345A73"/>
<path d="M351.097 277.987L283.382 376.492L412.726 377.135L489.496 279.454L351.097 277.987Z" fill="#1A2C4C"/>
<path d="M383.778 325.809C392.094 325.809 398.834 329.18 398.834 333.337C398.834 337.495 392.094 340.865 383.778 340.865C375.464 340.865 368.722 337.495 368.722 333.337C368.722 329.18 375.464 325.809 383.778 325.809Z" fill="#40718F"/>
<path d="M223.052 180.747C225.185 169.301 233.034 161.162 240.583 162.569C248.133 163.975 252.523 174.394 250.391 185.84C248.257 197.286 240.408 205.425 232.86 204.018C225.31 202.611 220.919 192.192 223.052 180.747Z" fill="#0099FF"/>
<path d="M250.409 149.915C249.003 159.88 244.554 170.863 238.069 182.997C235.79 173.057 234.335 160.947 232.323 148.836C230.274 136.702 227.668 124.568 223.146 114.652C222.128 112.458 221.025 110.36 219.825 108.421C222.504 108.166 225.219 108.421 227.801 109.136C231.838 110.215 235.62 112.3 238.711 115.088C243.851 119.658 247.294 125.889 249.342 132.459C251.027 137.914 251.33 143.709 250.409 149.915Z" fill="#1A2C4C"/>
<path d="M242.796 160.22C242.724 162.183 242.59 164.184 242.409 166.172C239.645 198.417 226.104 220.54 205.387 220.54C176.136 220.54 157.177 187.737 157.177 155.601C157.177 123.901 176.597 100.954 199.326 103.609C212.43 105.112 222.007 109.464 228.807 115.84C233.305 120.083 236.553 125.211 238.772 131.041C241.305 137.575 242.53 144.97 242.784 152.934C242.784 152.958 242.809 152.983 242.809 153.007C242.906 155.359 242.881 157.759 242.796 160.22Z" fill="#F7906C"/>
<path d="M242.796 160.22C241.924 157.104 240.627 154.061 238.857 151.334C221.607 160.353 201.047 163.832 181.555 160.535C177.845 163.626 174.221 166.669 170.572 169.711C170.645 155.043 170.851 145.115 176.573 138.012C181.943 131.344 190.901 128.835 199.387 127.744C208.939 126.495 218.649 126.544 228.177 127.926C231.826 128.435 235.608 129.223 238.784 131.066C241.317 137.599 242.542 144.994 242.796 152.958C242.796 152.983 242.821 153.007 242.821 153.031C242.906 155.359 242.881 157.759 242.796 160.22Z" fill="#E1534D"/>
<path d="M247.015 140.363C243.003 143.758 237.972 146.57 232.323 148.849C216.249 155.334 195.362 157.48 179.082 156.692C171.081 174.269 167.845 180.573 165.796 195.908C157.977 188.574 151.613 175.142 149.722 164.584C147.855 154.062 148.037 143.018 150.971 132.678C155.589 116.374 167.239 107.645 175.312 103.403C177.324 102.3 179.143 101.536 180.549 100.978C190.865 96.99 202.49 97.3537 213.073 100.59C218.843 102.384 223.704 105.415 227.789 109.149C236.045 116.604 241.148 126.702 244.445 134.266C245.488 136.581 246.324 138.678 247.015 140.363Z" fill="#1A2C4C"/>
<path d="M250.409 149.916C249.743 146.388 248.749 142.97 247.342 139.672C246.554 137.806 245.585 135.999 244.457 134.254C240.784 128.484 235.438 123.732 228.977 121.634C227.135 119.052 225.195 116.725 223.158 114.664C215.825 107.209 207.218 102.942 198.102 101.451C190.513 100.227 182.622 100.917 175.336 103.39C177.348 102.287 179.167 101.524 180.573 100.966C190.889 96.9778 202.514 97.3414 213.097 100.578C218.867 102.372 223.728 105.403 227.813 109.136C231.85 110.215 235.632 112.3 238.723 115.088C243.863 119.658 247.306 125.889 249.355 132.46C251.028 137.915 251.331 143.709 250.409 149.916Z" fill="#2A5070"/>
<path d="M188.404 169.687C193.81 166.596 199.423 165.202 207.29 168.075" stroke="#1A2C4C" stroke-width="2.42445" stroke-miterlimit="10" stroke-linecap="round"/>
<path d="M225.425 169.469C230.056 166.014 236.917 165.662 240.493 169.469" stroke="#1A2C4C" stroke-width="2.42445" stroke-miterlimit="10" stroke-linecap="round"/>
<path d="M219.837 187.095C220.309 189.543 220.055 194.962 218.891 197.399" stroke="#CD3249" stroke-width="2.42445" stroke-miterlimit="10" stroke-linecap="round"/>
<path d="M201.568 181.713C202.8 181.713 203.799 183.287 203.799 185.228C203.799 187.17 202.8 188.743 201.568 188.743C200.337 188.743 199.338 187.17 199.338 185.228C199.338 183.287 200.337 181.713 201.568 181.713Z" fill="#25293B"/>
<path d="M230.723 180.075C231.954 180.075 232.953 181.65 232.953 183.591C232.953 185.533 231.954 187.106 230.723 187.106C229.491 187.106 228.492 185.533 228.492 183.591C228.492 181.65 229.491 180.075 230.723 180.075Z" fill="#25293B"/>
<path d="M217.073 202.187C217.073 202.187 216.637 203.036 215.8 204.187C214.491 205.945 212.26 208.369 209.218 209.315H209.206C207.921 209.727 206.527 209.873 204.975 209.594C200.417 208.782 199.217 204.575 198.999 201.339C198.95 200.708 198.95 200.126 198.962 199.593C198.987 198.284 199.132 197.411 199.132 197.411C206.393 201.411 217.073 202.187 217.073 202.187Z" fill="#CD3249"/>
<path d="M217.073 202.187C217.073 202.187 216.636 203.035 215.8 204.187C212.091 204.138 204.502 202.235 198.962 199.592C198.986 198.283 199.132 197.41 199.132 197.41C206.393 201.411 217.073 202.187 217.073 202.187Z" fill="white"/>
<path d="M209.205 209.302C207.921 209.715 206.526 209.86 204.975 209.581C200.417 208.769 199.217 204.563 198.999 201.326C201.205 201.593 203.338 202.441 205.108 203.787C206.963 205.205 208.381 207.133 209.205 209.302Z" fill="#EA509C"/>
<path d="M165.869 164.123C165.869 164.123 165.614 149.007 171.905 133.987C179.797 115.137 195.883 107.076 211.485 106.53C230.286 105.863 242.057 118.483 242.057 118.483C242.057 118.483 235.935 107.682 223.861 104.578C215.933 102.542 203.969 102.215 194.368 106.118C184.476 110.13 172.148 121.271 167.687 133.042C163.238 144.812 161.068 163.141 161.068 163.141L165.869 164.123Z" fill="#0099FF"/>
<path d="M160.964 159.307C169.014 158.469 176.568 167.68 177.837 179.879C179.105 192.078 173.606 202.645 165.556 203.483C157.505 204.319 149.951 195.109 148.683 182.91C147.415 170.711 152.912 160.143 160.964 159.307Z" fill="#0099FF"/>
<path d="M156.875 166.45C162.073 165.67 167.399 172.449 168.773 181.591C170.148 190.735 167.048 198.779 161.851 199.561C156.653 200.342 151.327 193.563 149.953 184.419C148.578 175.277 151.678 167.231 156.875 166.45Z" fill="#00C8FF"/>
<path d="M211.606 211.266C215.918 211.266 219.413 213.443 219.413 216.127C219.413 218.812 215.918 220.988 211.606 220.988C207.295 220.988 203.799 218.812 203.799 216.127C203.799 213.443 207.295 211.266 211.606 211.266Z" fill="#0099FF"/>
<path d="M172.39 199.871C172.39 199.871 183.858 214.612 203.799 216.127" stroke="#00C8FF" stroke-width="2.42445" stroke-miterlimit="10" stroke-linecap="round"/>
<path d="M220.164 345.156L219.413 364.54C219.413 364.54 149.31 385.548 137.733 378.905C132.084 375.656 126.811 357.788 122.871 340.344C118.749 322.015 116.107 304.171 116.107 304.171L157.201 296.122C157.201 296.122 157.225 321.179 158.619 335.665C159.116 341.059 159.832 344.987 160.789 345.629C164.414 348.017 220.164 345.156 220.164 345.156Z" fill="#F7906C"/>
<path d="M158.619 335.641C151.152 338.065 136.739 341.811 122.871 340.332C118.749 322.003 116.107 304.159 116.107 304.159L157.201 296.11C157.201 296.098 157.225 321.154 158.619 335.641Z" fill="#F8344A"/>
<path d="M218.164 345.35C228.589 343.12 246.239 337.762 253.561 335.919C258.762 334.61 272.302 341.617 275.878 348.223C277.442 351.109 278.921 367.449 273.502 365.764C270.787 364.916 271.235 357.909 270.387 355.048C269.696 352.721 267.49 350.466 264.132 348.527C266.374 354.115 266.289 358.988 266.047 365.025C265.999 366.358 265.914 367.752 265.271 368.904C264.617 370.056 263.21 370.88 261.998 370.371C260.762 369.862 260.337 368.322 260.059 366.977C259.101 362.322 258.131 357.667 257.743 352.406C257.84 357.582 257.731 362.77 257.404 367.934C257.161 371.886 255.198 374.056 252.785 373.365C251.706 373.062 251.27 372.068 250.809 370.759C250.082 373.292 248.264 376.093 245.912 375.026C244.482 374.383 243.597 369.219 243.851 363.91C239.342 366.71 234.25 367.898 228.383 368.165C223.122 368.407 217.74 367.425 214.576 363.849C214.891 358.261 216.734 349.993 218.164 345.35Z" fill="#F7906C"/>
<path d="M250.918 369.959C251.27 365.764 250.906 361.509 249.84 357.461" stroke="#CD3249" stroke-width="1.21223" stroke-miterlimit="10" stroke-linecap="round"/>
<path d="M152.583 255.464C149.601 247.063 138.678 229.874 138.678 229.874C138.678 229.874 122.01 236.808 116.095 248.579C106.082 268.508 111.173 325.725 111.173 325.725C124.665 331.374 151.746 331.458 163.274 329.834C163.274 329.834 158.559 272.253 152.583 255.464Z" fill="#F8344A"/>
<path d="M154.704 258.979C159.25 280.739 161.687 301.032 162.462 320.912" stroke="#DB2338" stroke-width="1.21223" stroke-miterlimit="10" stroke-linecap="round"/>
<path d="M33.5059 381.39H511.462V393.379H33.5059V381.39Z" fill="#1A2C4C"/>
</svg>
