<svg width="1960" height="1023" viewBox="0 0 1960 1023" fill="none" xmlns="http://www.w3.org/2000/svg">
<rect width="1960" height="1023" fill="#F6F6F6"/>
<path d="M764.011 767.071L646.071 885.011" stroke="#0099FF" stroke-width="20" stroke-linecap="round"/>
<circle cx="743.652" cy="787.43" r="10" transform="rotate(-135 743.652 787.43)" fill="#071F5D"/>
<circle cx="662.335" cy="868.747" r="10" transform="rotate(-135 662.335 868.747)" fill="#F8344A"/>
<path d="M861.011 588.071L743.071 706.011" stroke="#0099FF" stroke-width="20" stroke-linecap="round"/>
<circle cx="840.652" cy="608.43" r="10" transform="rotate(-135 840.652 608.43)" fill="#071F5D"/>
<circle cx="759.335" cy="689.747" r="10" transform="rotate(-135 759.335 689.747)" fill="#F8344A"/>
<path d="M241.011 802.071L123.071 920.011" stroke="#0099FF" stroke-width="20" stroke-linecap="round"/>
<circle cx="220.652" cy="822.43" r="10" transform="rotate(-135 220.652 822.43)" fill="#071F5D"/>
<circle cx="139.335" cy="903.747" r="10" transform="rotate(-135 139.335 903.747)" fill="#F8344A"/>
<path d="M1508.07 177.011L1626.01 59.0711" stroke="#0099FF" stroke-width="20" stroke-linecap="round"/>
<path d="M1508.07 177.011L1626.01 59.0711" stroke="#0099FF" stroke-width="20" stroke-linecap="round"/>
<circle cx="10" cy="10" r="10" transform="matrix(-0.707107 -0.707107 -0.707107 0.707107 1542.57 156.652)" fill="#071F5D"/>
<circle cx="10" cy="10" r="10" transform="matrix(-0.707107 -0.707107 -0.707107 0.707107 1623.89 75.3345)" fill="#F8344A"/>
<path d="M1536.07 573.011L1654.01 455.071" stroke="#0099FF" stroke-width="20" stroke-linecap="round"/>
<path d="M1536.07 573.011L1654.01 455.071" stroke="#0099FF" stroke-width="20" stroke-linecap="round"/>
<circle cx="10" cy="10" r="10" transform="matrix(-0.707107 -0.707107 -0.707107 0.707107 1570.57 552.652)" fill="#071F5D"/>
<circle cx="10" cy="10" r="10" transform="matrix(-0.707107 -0.707107 -0.707107 0.707107 1651.89 471.334)" fill="#F8344A"/>
<path d="M1531.03 968.366L1648.97 850.426" stroke="#0099FF" stroke-width="20" stroke-linecap="round"/>
<path d="M1531.03 968.366L1648.97 850.426" stroke="#0099FF" stroke-width="20" stroke-linecap="round"/>
<circle cx="10" cy="10" r="10" transform="matrix(-0.707107 -0.707107 -0.707107 0.707107 1565.53 948.007)" fill="#071F5D"/>
<circle cx="10" cy="10" r="10" transform="matrix(-0.707107 -0.707107 -0.707107 0.707107 1646.85 866.69)" fill="#F8344A"/>
<path d="M465.97 52.426L348.03 170.366" stroke="#0099FF" stroke-width="20" stroke-linecap="round"/>
<circle cx="445.611" cy="72.7851" r="10" transform="rotate(-135 445.611 72.7851)" fill="#F6F6F6"/>
<circle cx="364.294" cy="154.102" r="10" transform="rotate(-135 364.294 154.102)" fill="#F8344A"/>
<path d="M178.03 571.366L295.97 453.426" stroke="#0099FF" stroke-width="20" stroke-linecap="round"/>
<circle cx="10" cy="10" r="10" transform="matrix(-0.707107 -0.707107 -0.707107 0.707107 212.531 551.007)" fill="#F6F6F6"/>
<circle cx="10" cy="10" r="10" transform="matrix(-0.707107 -0.707107 -0.707107 0.707107 289.606 473.932)" fill="#F8344A"/>
<path d="M1220.07 415.011L1338.01 297.071" stroke="#0099FF" stroke-width="20" stroke-linecap="round"/>
<circle cx="10" cy="10" r="10" transform="matrix(-0.707107 -0.707107 -0.707107 0.707107 1254.57 394.652)" fill="#F6F6F6"/>
<circle cx="10" cy="10" r="10" transform="matrix(-0.707107 -0.707107 -0.707107 0.707107 1331.65 317.577)" fill="#F8344A"/>
<path d="M489.011 833.071L430.041 892.041L371.071 951.011" stroke="#071F5D" stroke-width="20" stroke-linecap="round"/>
<circle cx="390.87" cy="931.212" r="10" transform="rotate(-135 390.87 931.212)" fill="#F8344A"/>
<circle cx="467.945" cy="854.137" r="10" transform="rotate(-135 467.945 854.137)" fill="#0099FF"/>
<path d="M1882.97 117.426L1824 176.396L1765.03 235.366" stroke="#071F5D" stroke-width="20" stroke-linecap="round"/>
<circle cx="1784.83" cy="215.567" r="10" transform="rotate(-135 1784.83 215.567)" fill="#F8344A"/>
<circle cx="1861.9" cy="138.492" r="10" transform="rotate(-135 1861.9 138.492)" fill="#F6F6F6"/>
<path d="M909.011 275.071L850.041 334.041L791.071 393.011" stroke="#071F5D" stroke-width="20" stroke-linecap="round"/>
<circle cx="810.87" cy="373.212" r="10" transform="rotate(-135 810.87 373.212)" fill="#F8344A"/>
<circle cx="887.945" cy="296.137" r="10" transform="rotate(-135 887.945 296.137)" fill="#F6F6F6"/>
<path d="M1060.01 387.071L1001.04 446.041L942.071 505.011" stroke="#071F5D" stroke-width="20" stroke-linecap="round"/>
<circle cx="961.87" cy="485.212" r="10" transform="rotate(-135 961.87 485.212)" fill="#F8344A"/>
<circle cx="1038.94" cy="408.137" r="10" transform="rotate(-135 1038.94 408.137)" fill="#F6F6F6"/>
<path d="M195.97 129.426L137 188.396L78.0302 247.366" stroke="#071F5D" stroke-width="20" stroke-linecap="round"/>
<circle cx="97.8291" cy="227.567" r="10" transform="rotate(-135 97.8291 227.567)" fill="#F6F6F6"/>
<circle cx="174.904" cy="150.492" r="10" transform="rotate(-135 174.904 150.492)" fill="#0099FF"/>
<path d="M123.292 642.462L60.7076 705.046" stroke="#F8344A" stroke-width="20" stroke-linecap="round"/>
<circle cx="116.216" cy="649.539" r="10" transform="rotate(-135 116.216 649.539)" fill="#0099FF"/>
<path d="M488.656 626.071L426.071 688.656" stroke="#F8344A" stroke-width="20" stroke-linecap="round"/>
<circle cx="481.579" cy="633.148" r="10" transform="rotate(-135 481.579 633.148)" fill="#0099FF"/>
<path d="M488.656 626.071L426.071 688.656" stroke="#F8344A" stroke-width="20" stroke-linecap="round"/>
<circle cx="481.579" cy="633.148" r="10" transform="rotate(-135 481.579 633.148)" fill="#0099FF"/>
<path d="M631.656 366.071L569.071 428.656" stroke="#F8344A" stroke-width="20" stroke-linecap="round"/>
<circle cx="624.579" cy="373.148" r="10" transform="rotate(-135 624.579 373.148)" fill="#0099FF"/>
<path d="M1038.97 748.426L921.03 866.366" stroke="#071F5D" stroke-width="20" stroke-linecap="round"/>
<circle cx="1019.32" cy="768.078" r="10" transform="rotate(-135 1019.32 768.078)" fill="#F8344A"/>
<circle cx="935.172" cy="852.224" r="10" transform="rotate(-135 935.172 852.224)" fill="#0099FF"/>
<path d="M707.011 491.071L589.071 609.011" stroke="#071F5D" stroke-width="20" stroke-linecap="round"/>
<circle cx="687.359" cy="510.723" r="10" transform="rotate(-135 687.359 510.723)" fill="#F8344A"/>
<circle cx="603.213" cy="594.869" r="10" transform="rotate(-135 603.213 594.869)" fill="#0099FF"/>
<path d="M1431.01 531.071L1313.07 649.011" stroke="#071F5D" stroke-width="20" stroke-linecap="round"/>
<circle cx="1411.36" cy="550.723" r="10" transform="rotate(-135 1411.36 550.723)" fill="#F8344A"/>
<circle cx="1327.21" cy="634.869" r="10" transform="rotate(-135 1327.21 634.869)" fill="#0099FF"/>
<path d="M1665.03 751.366L1782.97 633.426" stroke="#071F5D" stroke-width="20" stroke-linecap="round"/>
<circle cx="10" cy="10" r="10" transform="matrix(-0.707107 -0.707107 -0.707107 0.707107 1698.82 731.714)" fill="#F8344A"/>
<circle cx="10" cy="10" r="10" transform="matrix(-0.707107 -0.707107 -0.707107 0.707107 1782.97 647.568)" fill="#0099FF"/>
<path d="M1243.03 895.366L1360.97 777.426" stroke="#F8344A" stroke-width="20" stroke-linecap="round"/>
<circle cx="10" cy="10" r="10" transform="matrix(-0.707107 -0.707107 -0.707107 0.707107 1277.53 875.007)" fill="#0099FF"/>
<circle cx="1344.71" cy="793.69" r="10" transform="rotate(-135 1344.71 793.69)" fill="#F6F6F6"/>
<path d="M179.071 393.011L297.011 275.071" stroke="#F8344A" stroke-width="20" stroke-linecap="round"/>
<circle cx="10" cy="10" r="10" transform="matrix(-0.707107 -0.707107 -0.707107 0.707107 213.572 372.652)" fill="#0099FF"/>
<circle cx="280.747" cy="291.334" r="10" transform="rotate(-135 280.747 291.334)" fill="#F6F6F6"/>
<path d="M1670.97 232.426L1553.03 350.366" stroke="#F8344A" stroke-width="20" stroke-linecap="round"/>
<circle cx="1650.61" cy="252.785" r="10" transform="rotate(-135 1650.61 252.785)" fill="#0099FF"/>
<circle cx="10" cy="10" r="10" transform="matrix(-0.707107 -0.707107 -0.707107 0.707107 1583.44 334.103)" fill="#F6F6F6"/>
<path d="M1167.01 492.071L1049.07 610.011" stroke="#F8344A" stroke-width="20" stroke-linecap="round"/>
<circle cx="1146.65" cy="512.43" r="10" transform="rotate(-135 1146.65 512.43)" fill="#0099FF"/>
<circle cx="10" cy="10" r="10" transform="matrix(-0.707107 -0.707107 -0.707107 0.707107 1079.48 593.747)" fill="#F6F6F6"/>
<path d="M1915.97 472.426L1798.03 590.366" stroke="#F8344A" stroke-width="20" stroke-linecap="round"/>
<circle cx="1895.61" cy="492.785" r="10" transform="rotate(-135 1895.61 492.785)" fill="#0099FF"/>
<circle cx="10" cy="10" r="10" transform="matrix(-0.707107 -0.707107 -0.707107 0.707107 1828.44 574.102)" fill="#071F5D"/>
</svg>
