<svg width="1960" height="1025" viewBox="0 0 1960 1025" fill="none" xmlns="http://www.w3.org/2000/svg">
<path d="M1459 1L1458.75 258.49" stroke="#071F5D" stroke-width="20"/>
<path d="M172.456 175.993L1346.15 178.021" stroke="#071F5D" stroke-width="20"/>
<path d="M1608.96 501.481L1608.96 1025" stroke="#071F5D" stroke-width="20"/>
<path d="M303.423 175.993L171.002 175.993C137.865 175.993 111 149.125 111 115.983L111 0.999987" stroke="#071F5D" stroke-width="20"/>
<path d="M1211 1L1211 117.983C1211 151.125 1237.86 177.993 1271 177.993L1376.65 177.993" stroke="#071F5D" stroke-width="20"/>
<path d="M1609.16 507.285L1608.59 391.007C1608.43 357.981 1581.61 331.292 1548.59 331.292L1516.61 331.292" stroke="#071F5D" stroke-width="20"/>
<path d="M415.039 514.593C415.039 520.116 419.515 524.593 425.038 524.593C430.56 524.592 435.037 520.114 435.037 514.591L415.039 514.593ZM485.167 176.91L485.19 166.91L485.167 176.91ZM606.668 167.168L485.19 166.91L485.145 186.911L606.623 187.169L606.668 167.168ZM415.039 236.921L415.039 514.593L435.037 514.591L435.037 236.919L415.039 236.921ZM485.19 166.91C446.472 166.827 415.039 198.198 415.039 236.921L435.037 236.919C435.037 209.26 457.489 186.852 485.145 186.911L485.19 166.91Z" fill="#071F5D"/>
<path d="M1458.46 242.491L1458.46 238.309C1458.46 205.167 1431.6 178.298 1398.46 178.298L1298.67 178.298" stroke="#071F5D" stroke-width="20"/>
<path d="M1546.37 330.987L1960 330.987" stroke="#071F5D" stroke-width="20"/>
<path d="M1459 154.994L1459 271.288C1459 304.504 1485.98 331.402 1519.19 331.298L1618.13 330.987" stroke="#071F5D" stroke-width="20"/>
<path fill-rule="evenodd" clip-rule="evenodd" d="M423.392 649.975C497.932 649.975 558.358 589.536 558.358 514.98C558.358 440.425 497.932 379.985 423.392 379.985C348.853 379.985 288.427 440.425 288.427 514.98C288.427 589.536 348.853 649.975 423.392 649.975ZM423.392 629.975C486.889 629.975 538.363 578.49 538.363 514.98C538.363 451.47 486.889 399.984 423.392 399.984C359.896 399.984 308.421 451.47 308.421 514.98C308.421 578.49 359.896 629.975 423.392 629.975Z" fill="#F6F6F6"/>
<ellipse cx="308.421" cy="465.982" rx="9.99745" ry="9.99961" fill="#F8344A"/>
<ellipse cx="389.401" cy="634.975" rx="9.99745" ry="9.99961" fill="#F8344A"/>
<ellipse cx="423.392" cy="389.985" rx="9.99745" ry="9.99961" fill="#0099FF"/>
<ellipse cx="544.361" cy="545.979" rx="9.99745" ry="9.99961" fill="#0099FF"/>
<ellipse cx="310.421" cy="568.978" rx="9.99745" ry="9.99961" fill="#0099FF"/>
<ellipse cx="527.366" cy="445.983" rx="9.99745" ry="9.99961" fill="#071F5D"/>
<ellipse cx="498.373" cy="614.976" rx="9.99745" ry="9.99961" fill="#071F5D"/>
<path fill-rule="evenodd" clip-rule="evenodd" d="M423.392 683.973C517.257 683.973 593.349 607.865 593.349 513.98C593.349 420.095 517.257 343.987 423.392 343.987C329.528 343.987 253.436 420.095 253.436 513.98C253.436 607.865 329.528 683.973 423.392 683.973ZM423.392 663.974C506.214 663.974 573.354 596.82 573.354 513.98C573.354 431.141 506.214 363.986 423.392 363.986C340.571 363.986 273.43 431.141 273.43 513.98C273.43 596.82 340.571 663.974 423.392 663.974Z" fill="#F8344A"/>
<ellipse cx="284.428" cy="435.983" rx="9.99745" ry="9.99961" fill="#071F5D"/>
<ellipse cx="548.36" cy="613.976" rx="9.99745" ry="9.99961" fill="#071F5D"/>
<ellipse cx="563.357" cy="435.983" rx="9.99745" ry="9.99961" fill="#F6F6F6"/>
<ellipse cx="294.425" cy="607.976" rx="9.99745" ry="9.99961" fill="#F6F6F6"/>
<ellipse cx="423.392" cy="353.986" rx="9.99745" ry="9.99961" fill="#0099FF"/>
<ellipse cx="423.392" cy="673.974" rx="9.99745" ry="9.99961" fill="#0099FF"/>
<path d="M523.367 513.98C523.367 569.206 478.606 613.976 423.392 613.976C368.178 613.976 323.418 569.206 323.418 513.98C323.418 458.754 368.178 413.984 423.392 413.984C478.606 413.984 523.367 458.754 523.367 513.98Z" fill="#071F5D"/>
<ellipse cx="378.404" cy="513.98" rx="9.99745" ry="9.99961" fill="#F6F6F6"/>
<ellipse cx="481.377" cy="513.98" rx="9.99745" ry="9.99961" fill="#0099FF"/>
<ellipse cx="423.392" cy="573.978" rx="9.99745" ry="9.99961" fill="#F8344A"/>
<ellipse cx="423.392" cy="456.982" rx="9.99745" ry="9.99961" fill="#F6F6F6"/>
<ellipse cx="111.471" cy="64.9975" rx="9.99745" ry="9.99961" fill="#F8344A"/>
<ellipse cx="280.429" cy="175.993" rx="9.99745" ry="9.99961" fill="#0099FF"/>
<ellipse cx="486.376" cy="176.993" rx="9.99745" ry="9.99961" fill="#F6F6F6"/>
<ellipse cx="692.324" cy="176.993" rx="9.99745" ry="9.99961" fill="#0099FF"/>
<ellipse cx="898.271" cy="176.993" rx="9.99745" ry="9.99961" fill="#F8344A"/>
<ellipse cx="1310.17" cy="177.993" rx="9.99745" ry="9.99961" fill="#F8344A"/>
<ellipse cx="1609.09" cy="330.987" rx="9.99745" ry="9.99961" fill="#F8344A"/>
<ellipse cx="1609.09" cy="765.97" rx="9.99745" ry="9.99961" fill="#F8344A"/>
<ellipse cx="1104.22" cy="177.993" rx="9.99745" ry="9.99961" fill="#F6F6F6"/>
<ellipse cx="1459.13" cy="67.9974" rx="9.99745" ry="9.99961" fill="#F6F6F6"/>
<ellipse cx="1791.04" cy="330.987" rx="9.99745" ry="9.99961" fill="#F6F6F6"/>
<ellipse cx="1609.09" cy="925.964" rx="9.99745" ry="9.99961" fill="#F6F6F6"/>
<ellipse cx="1609.09" cy="445.983" rx="9.99745" ry="9.99961" fill="#F6F6F6"/>
<ellipse cx="1211.19" cy="104.996" rx="9.99745" ry="9.99961" fill="#0099FF"/>
<ellipse cx="1459.13" cy="248.99" rx="9.99745" ry="9.99961" fill="#0099FF"/>
<ellipse cx="1609.09" cy="605.977" rx="9.99745" ry="9.99961" fill="#0099FF"/>
<path d="M1518.11 837.899L-0.000217757 837.899" stroke="#071F5D" stroke-width="20"/>
<path d="M1608.59 661.974L1609.28 777.911C1609.48 811.265 1582.44 838.382 1549.09 838.278L1449.85 837.967" stroke="#071F5D" stroke-width="20"/>
<ellipse cx="486.376" cy="837.967" rx="9.99745" ry="9.99961" fill="#F8344A"/>
<ellipse cx="1104.22" cy="837.967" rx="9.99745" ry="9.99961" fill="#F8344A"/>
<ellipse cx="1310.17" cy="837.967" rx="9.99745" ry="9.99961" fill="#F6F6F6"/>
<ellipse cx="692.324" cy="837.967" rx="9.99745" ry="9.99961" fill="#F6F6F6"/>
<ellipse cx="1498.12" cy="837.967" rx="9.99745" ry="9.99961" fill="#0099FF"/>
<ellipse cx="898.271" cy="837.967" rx="9.99745" ry="9.99961" fill="#0099FF"/>
<ellipse cx="280.429" cy="837.967" rx="9.99745" ry="9.99961" fill="#0099FF"/>
</svg>
