<svg width="1961" height="1024" viewBox="0 0 1961 1024" fill="none" xmlns="http://www.w3.org/2000/svg">
<path d="M1459.42 0.999997L1459.42 258.239" stroke="#071F5D" stroke-width="20"/>
<path d="M172.956 175.822L1346.65 177.848" stroke="#071F5D" stroke-width="20"/>
<path d="M1609.46 500.992L1609.46 1024" stroke="#071F5D" stroke-width="20"/>
<path d="M303.923 175.822L173.181 175.822C140.045 175.822 113.189 148.979 113.189 115.859L113.189 0.999996" stroke="#071F5D" stroke-width="20"/>
<path d="M1216.49 1L1217.06 118.15C1217.23 151.155 1244.04 177.82 1277.07 177.82L1377.15 177.82" stroke="#071F5D" stroke-width="20"/>
<path d="M1609.66 506.791L1609.09 390.638C1608.92 357.634 1582.11 330.969 1549.09 330.969L1517.11 330.969" stroke="#071F5D" stroke-width="20"/>
<g filter="url(#filter0_i_6_4)">
<path d="M415.535 514.087C415.535 519.608 420.014 524.086 425.538 524.088C431.062 524.09 435.54 519.616 435.54 514.094L415.535 514.087ZM425.538 236.702L435.54 236.706L425.538 236.702ZM607.163 166.999L485.675 166.741L485.64 186.736L607.128 186.994L607.163 166.999ZM415.535 236.698L415.535 514.087L435.54 514.094L435.54 236.706L415.535 236.698ZM485.675 166.741C446.958 166.659 415.535 198 415.535 236.698L435.54 236.706C435.54 209.064 457.985 186.677 485.64 186.736L485.675 166.741Z" fill="#071F5D"/>
</g>
<path d="M1458.96 242.255L1458.96 238.09C1458.96 204.969 1432.1 178.125 1398.96 178.125L1299.17 178.125" stroke="#071F5D" stroke-width="20"/>
<path d="M1546.87 330.666L1960.5 330.665" stroke="#071F5D" stroke-width="20"/>
<path d="M1459.89 154.844L1459.2 270.654C1459 303.986 1486.04 331.079 1519.39 330.975L1618.63 330.665" stroke="#071F5D" stroke-width="20"/>
<path fill-rule="evenodd" clip-rule="evenodd" d="M423.892 649.341C498.431 649.341 558.858 588.961 558.858 514.478C558.858 439.995 498.431 379.615 423.892 379.615C349.353 379.615 288.926 439.995 288.926 514.478C288.926 588.961 349.353 649.341 423.892 649.341ZM423.892 629.361C487.389 629.361 538.863 577.926 538.863 514.478C538.863 451.03 487.389 399.595 423.892 399.595C360.395 399.595 308.921 451.03 308.921 514.478C308.921 577.926 360.395 629.361 423.892 629.361Z" fill="#F6F6F6"/>
<ellipse cx="308.921" cy="465.528" rx="9.99745" ry="9.98985" fill="#F8344A"/>
<ellipse cx="389.901" cy="634.356" rx="9.99745" ry="9.98985" fill="#F8344A"/>
<ellipse cx="423.892" cy="389.605" rx="9.99745" ry="9.98985" fill="#0099FF"/>
<ellipse cx="544.861" cy="545.447" rx="9.99745" ry="9.98985" fill="#0099FF"/>
<ellipse cx="310.921" cy="568.423" rx="9.99745" ry="9.98985" fill="#0099FF"/>
<ellipse cx="527.865" cy="445.548" rx="9.99745" ry="9.98985" fill="#071F5D"/>
<ellipse cx="498.873" cy="614.377" rx="9.99745" ry="9.98985" fill="#071F5D"/>
<path fill-rule="evenodd" clip-rule="evenodd" d="M423.892 683.306C517.756 683.306 593.849 607.272 593.849 513.479C593.849 419.686 517.756 343.652 423.892 343.652C330.027 343.652 253.935 419.686 253.935 513.479C253.935 607.272 330.027 683.306 423.892 683.306ZM423.892 663.327C506.714 663.327 573.854 596.238 573.854 513.479C573.854 430.721 506.714 363.631 423.892 363.631C341.07 363.631 273.93 430.721 273.93 513.479C273.93 596.238 341.07 663.327 423.892 663.327Z" fill="#F8344A"/>
<ellipse cx="284.927" cy="435.558" rx="9.99745" ry="9.98985" fill="#071F5D"/>
<ellipse cx="548.86" cy="613.378" rx="9.99745" ry="9.98985" fill="#071F5D"/>
<ellipse cx="563.856" cy="435.558" rx="9.99745" ry="9.98985" fill="#F6F6F6"/>
<ellipse cx="294.925" cy="607.384" rx="9.99745" ry="9.98985" fill="#F6F6F6"/>
<ellipse cx="423.892" cy="353.642" rx="9.99745" ry="9.98985" fill="#0099FF"/>
<ellipse cx="423.892" cy="673.317" rx="9.99745" ry="9.98985" fill="#0099FF"/>
<path d="M523.866 513.479C523.866 568.652 479.106 613.378 423.892 613.378C368.678 613.378 323.917 568.652 323.917 513.479C323.917 458.307 368.678 413.581 423.892 413.581C479.106 413.581 523.866 458.307 523.866 513.479Z" fill="#071F5D"/>
<ellipse cx="378.903" cy="513.479" rx="9.99745" ry="9.98985" fill="#F6F6F6"/>
<ellipse cx="481.877" cy="513.479" rx="9.99745" ry="9.98985" fill="#0099FF"/>
<ellipse cx="423.892" cy="573.418" rx="9.99745" ry="9.98985" fill="#F8344A"/>
<ellipse cx="423.892" cy="456.537" rx="9.99745" ry="9.98985" fill="#F6F6F6"/>
<ellipse cx="112.971" cy="64.935" rx="9.99745" ry="9.98985" fill="#F8344A"/>
<ellipse cx="280.928" cy="175.822" rx="9.99745" ry="9.98985" fill="#0099FF"/>
<ellipse cx="486.876" cy="176.821" rx="9.99745" ry="9.98985" fill="#F6F6F6"/>
<ellipse cx="692.823" cy="176.821" rx="9.99745" ry="9.98985" fill="#0099FF"/>
<ellipse cx="898.771" cy="176.821" rx="9.99745" ry="9.98985" fill="#F8344A"/>
<ellipse cx="1310.67" cy="177.82" rx="9.99745" ry="9.98985" fill="#F8344A"/>
<ellipse cx="1609.59" cy="330.665" rx="9.99745" ry="9.98985" fill="#F8344A"/>
<ellipse cx="1609.59" cy="765.223" rx="9.99745" ry="9.98985" fill="#F8344A"/>
<ellipse cx="1104.72" cy="177.82" rx="9.99745" ry="9.98985" fill="#F6F6F6"/>
<ellipse cx="1459.63" cy="67.932" rx="9.99745" ry="9.98985" fill="#F6F6F6"/>
<ellipse cx="1791.54" cy="330.665" rx="9.99745" ry="9.98985" fill="#F6F6F6"/>
<ellipse cx="1609.59" cy="925.061" rx="9.99745" ry="9.98985" fill="#F6F6F6"/>
<ellipse cx="1609.59" cy="445.548" rx="9.99745" ry="9.98985" fill="#F6F6F6"/>
<ellipse cx="1216.69" cy="104.894" rx="9.99745" ry="9.98985" fill="#0099FF"/>
<ellipse cx="1459.63" cy="248.748" rx="9.99745" ry="9.98985" fill="#0099FF"/>
<ellipse cx="1609.59" cy="605.386" rx="9.99745" ry="9.98985" fill="#0099FF"/>
<path d="M1518.61 837.082L0.499782 837.082" stroke="#071F5D" stroke-width="20"/>
<path d="M1609.09 661.329L1609.78 777.139C1609.98 810.472 1582.94 837.565 1549.59 837.46L1450.35 837.15" stroke="#071F5D" stroke-width="20"/>
<ellipse cx="486.876" cy="837.15" rx="9.99745" ry="9.98985" fill="#F8344A"/>
<ellipse cx="1104.72" cy="837.15" rx="9.99745" ry="9.98985" fill="#F8344A"/>
<ellipse cx="1310.67" cy="837.15" rx="9.99745" ry="9.98985" fill="#F6F6F6"/>
<ellipse cx="692.823" cy="837.15" rx="9.99745" ry="9.98985" fill="#F6F6F6"/>
<ellipse cx="1498.62" cy="837.15" rx="9.99745" ry="9.98985" fill="#0099FF"/>
<ellipse cx="898.771" cy="837.15" rx="9.99745" ry="9.98985" fill="#0099FF"/>
<ellipse cx="280.928" cy="837.15" rx="9.99745" ry="9.98985" fill="#0099FF"/>
<defs>
<filter id="filter0_i_6_4" x="415.536" y="166.741" width="191.628" height="361.348" filterUnits="userSpaceOnUse" color-interpolation-filters="sRGB">
<feFlood flood-opacity="0" result="BackgroundImageFix"/>
<feBlend mode="normal" in="SourceGraphic" in2="BackgroundImageFix" result="shape"/>
<feColorMatrix in="SourceAlpha" type="matrix" values="0 0 0 0 0 0 0 0 0 0 0 0 0 0 0 0 0 0 127 0" result="hardAlpha"/>
<feOffset dy="4"/>
<feGaussianBlur stdDeviation="2"/>
<feComposite in2="hardAlpha" operator="arithmetic" k2="-1" k3="1"/>
<feColorMatrix type="matrix" values="0 0 0 0 0 0 0 0 0 0 0 0 0 0 0 0 0 0 0.25 0"/>
<feBlend mode="normal" in2="shape" result="effect1_innerShadow_6_4"/>
</filter>
</defs>
</svg>
