<svg width="1960" height="1023" viewBox="0 0 1960 1023" fill="none" xmlns="http://www.w3.org/2000/svg">
<g clip-path="url(#clip0_17_55)">
<rect width="1960" height="1023" fill="#F6F6F6"/>
<path fill-rule="evenodd" clip-rule="evenodd" d="M78.5419 765.334C-19.4655 765.334 -98.9162 844.728 -98.9162 942.667C-98.9162 1040.61 -19.4655 1120 78.5419 1120C176.549 1120 256 1040.61 256 942.667C256 844.728 176.549 765.334 78.5419 765.334ZM78.5419 791.605C-4.94592 791.605 -72.6261 859.238 -72.6261 942.667C-72.6261 1026.1 -4.94592 1093.73 78.5419 1093.73C162.03 1093.73 229.71 1026.1 229.71 942.667C229.71 859.238 162.03 791.605 78.5419 791.605Z" fill="#F8344A"/>
<ellipse cx="191.576" cy="824.158" rx="13.1449" ry="13.1358" transform="rotate(180 191.576 824.158)" fill="#F6F6F6"/>
<ellipse cx="78.5002" cy="778.136" rx="13.1449" ry="13.1358" transform="rotate(180 78.5002 778.136)" fill="#071F5D"/>
<ellipse cx="242.855" cy="942.5" rx="13.1449" ry="13.1358" transform="rotate(180 242.855 942.5)" fill="#071F5D"/>
<path fill-rule="evenodd" clip-rule="evenodd" d="M78.5419 765.334C-19.4655 765.334 -98.9162 844.728 -98.9162 942.667C-98.9162 1040.61 -19.4655 1120 78.5419 1120C176.549 1120 256 1040.61 256 942.667C256 844.728 176.549 765.334 78.5419 765.334ZM78.5419 791.605C-4.94592 791.605 -72.6261 859.238 -72.6261 942.667C-72.6261 1026.1 -4.94592 1093.73 78.5419 1093.73C162.03 1093.73 229.71 1026.1 229.71 942.667C229.71 859.238 162.03 791.605 78.5419 791.605Z" fill="#F8344A"/>
<ellipse cx="191.576" cy="824.158" rx="13.1449" ry="13.1358" transform="rotate(180 191.576 824.158)" fill="#F6F6F6"/>
<ellipse cx="78.5002" cy="778.136" rx="13.1449" ry="13.1358" transform="rotate(180 78.5002 778.136)" fill="#071F5D"/>
<ellipse cx="242.855" cy="942.5" rx="13.1449" ry="13.1358" transform="rotate(180 242.855 942.5)" fill="#071F5D"/>
<mask id="mask0_17_55" style="mask-type:alpha" maskUnits="userSpaceOnUse" x="1529" y="0" width="431" height="446">
<rect x="1529" width="430.702" height="446" fill="#D9D9D9"/>
</mask>
<g mask="url(#mask0_17_55)">
<path fill-rule="evenodd" clip-rule="evenodd" d="M1917.3 203.26C2005.01 203.26 2076.12 132.206 2076.12 44.5562C2076.12 -43.0937 2005.01 -114.148 1917.3 -114.148C1829.58 -114.148 1758.47 -43.0937 1758.47 44.5562C1758.47 132.206 1829.58 203.26 1917.3 203.26ZM1917.3 179.749C1992.02 179.749 2052.59 119.221 2052.59 44.5565C2052.59 -30.1082 1992.02 -90.6359 1917.3 -90.6359C1842.58 -90.6359 1782 -30.1082 1782 44.5565C1782 119.221 1842.58 179.749 1917.3 179.749Z" fill="#071F5D"/>
<ellipse cx="1816.13" cy="150.616" rx="11.7648" ry="11.7559" fill="#F8344A"/>
<ellipse cx="1917.33" cy="191.804" rx="11.7648" ry="11.7559" fill="#0099FF"/>
<ellipse cx="1770.24" cy="44.7051" rx="11.7648" ry="11.7559" fill="#0099FF"/>
</g>
</g>
<defs>
<clipPath id="clip0_17_55">
<rect width="1960" height="1023" fill="white"/>
</clipPath>
</defs>
</svg>
