<svg width="1960" height="1023" viewBox="0 0 1960 1023" fill="none" xmlns="http://www.w3.org/2000/svg">
<g clip-path="url(#clip0_17_55)">
<rect width="1960" height="1023" fill="#F6F6F6"/>
<mask id="mask0_17_55" style="mask-type:alpha" maskUnits="userSpaceOnUse" x="1594" y="0" width="366" height="379">
<rect x="1594" width="366" height="379" fill="#D9D9D9"/>
</mask>
<g mask="url(#mask0_17_55)">
<path fill-rule="evenodd" clip-rule="evenodd" d="M1923.97 172.726C1998.51 172.726 2058.93 112.346 2058.93 37.8629C2058.93 -36.6198 1998.51 -97 1923.97 -97C1849.43 -97 1789 -36.6198 1789 37.8629C1789 112.346 1849.43 172.726 1923.97 172.726ZM1923.97 152.746C1987.46 152.746 2038.94 101.311 2038.94 37.8629C2038.94 -25.5854 1987.46 -77.0204 1923.97 -77.0204C1860.47 -77.0204 1808.99 -25.5854 1808.99 37.8629C1808.99 101.311 1860.47 152.746 1923.97 152.746Z" fill="#071F5D"/>
<ellipse cx="1838" cy="127.99" rx="9.99745" ry="9.98985" fill="#F8344A"/>
<ellipse cx="1924" cy="162.99" rx="9.99745" ry="9.98985" fill="#0099FF"/>
<ellipse cx="1799" cy="37.9898" rx="9.99745" ry="9.98985" fill="#0099FF"/>
</g>
<path fill-rule="evenodd" clip-rule="evenodd" d="M36.0344 850.274C-38.505 850.274 -98.9312 910.654 -98.9312 985.137C-98.9312 1059.62 -38.505 1120 36.0344 1120C110.574 1120 171 1059.62 171 985.137C171 910.654 110.574 850.274 36.0344 850.274ZM36.0344 870.254C-27.4622 870.254 -78.9363 921.689 -78.9363 985.137C-78.9363 1048.59 -27.4622 1100.02 36.0344 1100.02C99.5309 1100.02 151.005 1048.59 151.005 985.137C151.005 921.689 99.5309 870.254 36.0344 870.254Z" fill="#F8344A"/>
<ellipse cx="122.003" cy="895.01" rx="9.99745" ry="9.98985" transform="rotate(180 122.003 895.01)" fill="#F6F6F6"/>
<ellipse cx="36.0025" cy="860.01" rx="9.99745" ry="9.98985" transform="rotate(180 36.0025 860.01)" fill="#071F5D"/>
<ellipse cx="161.003" cy="985.01" rx="9.99745" ry="9.98985" transform="rotate(180 161.003 985.01)" fill="#071F5D"/>
</g>
<defs>
<clipPath id="clip0_17_55">
<rect width="1960" height="1023" fill="white"/>
</clipPath>
</defs>
</svg>
