<svg width="1960" height="1025" viewBox="0 0 1960 1025" fill="none" xmlns="http://www.w3.org/2000/svg">
<path d="M1459 0.00964354L1459 1024" stroke="#071F5D" stroke-width="20"/>
<path d="M1459.1 308.148L1459.1 507.225C1459.1 540.385 1485.96 567.272 1519.09 567.272L1645.14 567.272C1678.27 567.272 1705.14 594.159 1705.14 627.318L1705.14 715.843" stroke="#071F5D" stroke-width="20"/>
<path d="M1459.1 498.865L1459.1 698.946C1459.1 732.106 1432.23 758.993 1399.1 758.993L1271 758.993C1237.87 758.993 1211 785.881 1211 819.04L1211 1023.99" stroke="#071F5D" stroke-width="20"/>
<path d="M-3.96056e-05 152.999L1385.31 152.999" stroke="#071F5D" stroke-width="20"/>
<path d="M1275.36 152.999L1399.12 152.999C1432.24 152.999 1459.11 126.129 1459.13 92.9825L1459.16 25.0076" stroke="#071F5D" stroke-width="20"/>
<path d="M295.727 758.993L171.01 758.993C137.872 758.993 111 785.882 111 819.04L111 1024" stroke="#071F5D" stroke-width="20"/>
<path d="M1959.01 799.993L1765.12 799.993C1731.98 799.993 1705.11 773.105 1705.11 739.946L1705.11 672.708" stroke="#071F5D" stroke-width="20"/>
<ellipse cx="231.883" cy="153.072" rx="9.99495" ry="10.0049" fill="#F8344A"/>
<path d="M471.762 153.072C471.762 158.598 467.287 163.077 461.767 163.077C456.247 163.077 451.772 158.598 451.772 153.072C451.772 147.547 456.247 143.068 461.767 143.068C467.287 143.068 471.762 147.547 471.762 153.072Z" fill="#0099FF"/>
<ellipse cx="1149.42" cy="153.073" rx="9.99495" ry="10.0049" fill="#0099FF"/>
<ellipse cx="691.65" cy="153.073" rx="9.99495" ry="10.0049" fill="#F8344A"/>
<ellipse cx="1350.32" cy="153.073" rx="9.99495" ry="10.0049" fill="#F8344A"/>
<ellipse cx="920.535" cy="153.073" rx="9.99495" ry="10.0049" fill="#F6F6F6"/>
<ellipse cx="1459.26" cy="152.401" rx="9.99495" ry="10.0049" fill="#F6F6F6"/>
<ellipse cx="1459.26" cy="10.0049" rx="9.99495" ry="10.0049" fill="#0099FF"/>
<path d="M70.9641 153.072C70.9641 158.598 66.4893 163.077 60.9692 163.077C55.4491 163.077 50.9742 158.598 50.9742 153.072C50.9742 147.547 55.4491 143.068 60.9692 143.068C66.4893 143.068 70.9641 147.547 70.9641 153.072Z" fill="#F6F6F6"/>
<path d="M175.911 758.993L1349.32 758.993" stroke="#071F5D" stroke-width="20"/>
<path d="M207.245 758.993C207.245 764.519 202.77 768.998 197.25 768.998C191.73 768.998 187.255 764.519 187.255 758.993C187.255 753.468 191.73 748.988 197.25 748.988C202.77 748.988 207.245 753.468 207.245 758.993Z" fill="#F8344A"/>
<ellipse cx="426.785" cy="758.998" rx="9.99495" ry="10.0049" fill="#0099FF"/>
<ellipse cx="1114.44" cy="758.998" rx="9.99495" ry="10.0049" fill="#0099FF"/>
<ellipse cx="656.668" cy="758.998" rx="9.99495" ry="10.0049" fill="#F8344A"/>
<ellipse cx="885.553" cy="758.998" rx="9.99495" ry="10.0049" fill="#F6F6F6"/>
<ellipse cx="110.943" cy="841.403" rx="9.99495" ry="10.0049" fill="#F6F6F6"/>
<ellipse cx="1459.26" cy="386.185" rx="9.99495" ry="10.0049" fill="#F8344A"/>
<ellipse cx="1554.21" cy="567.272" rx="9.99495" ry="10.0049" fill="#F8344A"/>
<ellipse cx="1459.09" cy="775.998" rx="9.99495" ry="10.0049" fill="#F8344A"/>
<ellipse cx="1272.08" cy="758.998" rx="9.99495" ry="10.0049" fill="#F8344A"/>
<ellipse cx="1681.15" cy="579.277" rx="9.99495" ry="10.0049" fill="#F6F6F6"/>
<ellipse cx="1459.09" cy="646.31" rx="9.99495" ry="10.0049" fill="#F6F6F6"/>
<ellipse cx="1459.09" cy="516.247" rx="9.99495" ry="10.0049" fill="#0099FF"/>
<path d="M1469.09 915.585C1469.09 921.111 1464.61 925.59 1459.09 925.59C1453.57 925.59 1449.1 921.111 1449.1 915.585C1449.1 910.06 1453.57 905.581 1459.09 905.581C1464.61 905.581 1469.09 910.06 1469.09 915.585Z" fill="#0099FF"/>
<ellipse cx="1370.31" cy="758.998" rx="9.99495" ry="10.0049" fill="#0099FF"/>
<ellipse cx="1211.07" cy="867.997" rx="9.99495" ry="10.0049" fill="#0099FF"/>
<ellipse cx="1705.14" cy="676.324" rx="9.99495" ry="10.0049" fill="#0099FF"/>
<ellipse cx="1744.12" cy="796.382" rx="9.99495" ry="10.0049" fill="#F6F6F6"/>
<ellipse cx="1893.04" cy="800.384" rx="9.99495" ry="10.0049" fill="#F8344A"/>
</svg>
