<svg width="1963" height="1024" viewBox="0 0 1963 1024" fill="none" xmlns="http://www.w3.org/2000/svg">
<line x1="1461" y1="0.00976562" x2="1460" y2="1023.01" stroke="#071F5D" stroke-width="20"/>
<path d="M1461 308L1461 507C1461 540.137 1487.86 567 1521 567L1647 567C1680.14 567 1707 593.863 1707 627L1707 715.5" stroke="#071F5D" stroke-width="20"/>
<path d="M1461 498L1461 698C1461 731.137 1434.14 758 1401 758L1277.22 758C1244.08 758 1217.22 784.863 1217.22 818L1217.22 1023.5" stroke="#071F5D" stroke-width="20"/>
<path d="M1 151L1387.01 153.029" stroke="#071F5D" stroke-width="20"/>
<path d="M1277 152.996L1400.9 152.996C1434.04 152.996 1460.9 126.133 1460.9 92.9958L1460.9 24.9958" stroke="#071F5D" stroke-width="20"/>
<path d="M296.876 756.063L173.104 755.803C139.918 755.734 112.978 782.617 112.978 815.803L112.978 1023" stroke="#071F5D" stroke-width="20"/>
<path d="M1961 800L1766.94 800.295C1733.76 800.345 1706.84 773.467 1706.84 740.295L1706.84 672.386" stroke="#071F5D" stroke-width="20"/>
<circle cx="233" cy="151" r="10" fill="#F8344A"/>
<circle cx="463" cy="151" r="10" fill="#0099FF"/>
<circle cx="1151" cy="153" r="10" fill="#0099FF"/>
<circle cx="693" cy="152" r="10" fill="#F8344A"/>
<circle cx="1352" cy="153" r="10" fill="#F8344A"/>
<circle cx="922" cy="153" r="10" fill="#F6F6F6"/>
<circle cx="1461" cy="152.328" r="10" fill="#F6F6F6"/>
<circle cx="1461" cy="10" r="10" fill="#0099FF"/>
<circle cx="62" cy="151" r="10" fill="#F6F6F6"/>
<path d="M177 756L1351 758.028" stroke="#071F5D" stroke-width="20"/>
<circle cx="198" cy="756" r="10" fill="#F8344A"/>
<circle cx="428" cy="756" r="10" fill="#0099FF"/>
<circle cx="1116" cy="758" r="10" fill="#0099FF"/>
<circle cx="658" cy="757" r="10" fill="#F8344A"/>
<circle cx="887" cy="758" r="10" fill="#F6F6F6"/>
<circle cx="113" cy="841" r="10" fill="#F6F6F6"/>
<circle cx="1461" cy="386" r="10" fill="#F8344A"/>
<circle cx="1556" cy="567" r="10" fill="#F8344A"/>
<circle cx="1461" cy="776" r="10" fill="#F8344A"/>
<circle cx="1244" cy="768" r="10" fill="#F8344A"/>
<circle cx="1684" cy="577" r="10" fill="#F6F6F6"/>
<circle cx="1461" cy="646" r="10" fill="#F6F6F6"/>
<circle cx="1461" cy="516" r="10" fill="#0099FF"/>
<circle cx="1461" cy="915" r="10" fill="#0099FF"/>
<circle cx="1372" cy="758" r="10" fill="#0099FF"/>
<circle cx="1217" cy="867" r="10" fill="#0099FF"/>
<circle cx="1707" cy="676" r="10" fill="#0099FF"/>
<circle cx="1746" cy="797" r="10" fill="#F6F6F6"/>
<circle cx="1895" cy="800" r="10" fill="#F8344A"/>
</svg>
